<?xml version="1.0" encoding="UTF-8"?>
<svg id="Layer_1" data-name="Layer 1" xmlns="http://www.w3.org/2000/svg" xmlns:xlink="http://www.w3.org/1999/xlink" viewBox="0 0 310 310">
  <defs>
    <style>
      .cls-1 {
        fill: none;
      }

      .cls-2 {
        clip-path: url(#clippath);
      }

      .cls-3 {
        fill: #f2f2f2;
      }

      .cls-4 {
        fill: #f6a586;
      }

      .cls-5 {
        fill: #e98971;
      }

      .cls-6 {
        fill: #fff;
      }

      .cls-7 {
        fill: #f3987f;
      }

      .cls-8 {
        fill: #e6d6d5;
      }

      .cls-9 {
        fill: #8247c7;
      }

      .cls-10 {
        fill: #b780f6;
      }

      .cls-11 {
        fill: #bf5e21;
      }

      .cls-12 {
        fill: #ab4d19;
      }

      .cls-13 {
        fill: #ddd7f9;
      }

      .cls-14 {
        fill: #e2c8ff;
      }

      .cls-15 {
        fill: #db7b67;
      }

      .cls-16 {
        fill: #d3b2f6;
      }

      .cls-17 {
        fill: #dc806a;
      }

      .cls-18 {
        fill: #150033;
      }

      .cls-19 {
        fill: #2f1a4d;
      }

      .cls-20 {
        fill: #4f281c;
      }

      .cls-21 {
        clip-path: url(#clippath-1);
      }
    </style>
    <clipPath id="clippath">
      <path class="cls-1" d="m176.3,213.61c1.81.09,2.59,2.39,1.22,3.59-4,3.47-11.25,8.41-20.15,8.41s-16.25-4.61-20.69-8.02c-1.51-1.16-.75-3.63,1.15-3.68,11.62-.31,22-1.13,38.47-.3Z"/>
    </clipPath>
    <clipPath id="clippath-1">
      <path class="cls-1" d="m177.23,119.44c-9.87,14.65-27.27,8.97-29.73-1.25-11.81,9.02-17.72-3.38-17.72-3.38-6.1,9.2-12.32,4.98-12.32,4.98,5.99,10.03-5.28,16.07-5.28,16.07,3.32,18.21-3.78,32.85-3.78,32.85,5.67,6.44-1.69,14.86-1.69,14.86-8.26-17.57-5.32-35.79-5.32-35.79-5.2-5.15,2.38-14.31,2.38-14.31-18.44-24.74,4.79-28.13,6.77-27.97-4.35-21.23,14.39-20.12,19.47-11.23,2.21-9.98,8.46-7.75,10.04-3.57,3.47-14.42,16.82-7.54,15.09-3.84,9.39-12.56,16.7-1.33,16.7-1.33,11.84-6.84,20.08,3.27,16.38,12.44,15.23-9.56,25.84,10.95,14.61,24.48,12.6,3.38,4.57,19.45,4.57,19.45,5.51,3.87.28,9.18.43,9.18,4.84,11.93-2.66,28.62-2.66,28.62-7.42-9.55-4.55-30.59-4.55-30.75-10.34-12.03-4.81-19.31-4.81-19.31-14.45,7.17-18.58-10.36-18.58-10.2Z"/>
    </clipPath>
  </defs>
  <rect class="cls-14" width="310" height="310"/>
  <circle class="cls-6" cx="155" cy="155" r="131.14"/>
  <g>
    <ellipse class="cls-10" cx="272.31" cy="40.14" rx="10.85" ry="14.22" transform="translate(60.83 216.31) rotate(-48.18)"/>
    <ellipse class="cls-10" cx="223.64" cy="24.88" rx="6.94" ry="9.09" transform="translate(121.06 225.16) rotate(-69.23)"/>
    <ellipse class="cls-10" cx="282.31" cy="75.97" rx="3.64" ry="4.76" transform="translate(-4.4 133.12) rotate(-26.34)"/>
    <ellipse class="cls-10" cx="42.57" cy="43.03" rx="19.36" ry="14.78" transform="translate(-13.71 20.76) rotate(-23.72)"/>
    <ellipse class="cls-10" cx="21.52" cy="113.47" rx="5.25" ry="4.01" transform="translate(-90.46 85.22) rotate(-65.1)"/>
    <ellipse class="cls-10" cx="26.25" cy="268.13" rx="10.82" ry="14.17" transform="translate(-172.83 86.61) rotate(-42.05)"/>
    <ellipse class="cls-10" cx="261.57" cy="274.84" rx="7.26" ry="5.54" transform="translate(-117.69 263.81) rotate(-44.75)"/>
    <ellipse class="cls-10" cx="288.41" cy="231.53" rx="10.62" ry="8.11" transform="translate(-80.13 262.55) rotate(-43.57)"/>
    <ellipse class="cls-10" cx="89.28" cy="21.51" rx="5.96" ry="4.55" transform="translate(-2.08 12.21) rotate(-7.74)"/>
    <ellipse class="cls-10" cx="29.43" cy="226.11" rx="6.4" ry="8.38" transform="translate(-73.65 22.72) rotate(-19.46)"/>
    <ellipse class="cls-10" cx="287.11" cy="271.5" rx="5.63" ry="4.3" transform="translate(-101.7 342.03) rotate(-53.68)"/>
    <ellipse class="cls-10" cx="294.44" cy="166.06" rx="2.66" ry="3.49" transform="translate(-12.2 23.79) rotate(-4.53)"/>
  </g>
  <g>
    <path class="cls-13" d="m240.94,144.18c-.25,2.5-.55,5.06-.9,7.69-3.29,24.92-14.49,67.13-22.27,91.12-3.05,9.38-5.57,15.97-6.89,17.66-2.91,3.69-12.31,6.61-25.53,8.31-8.19,1.06-17.83,1.65-28.29,1.65s-21.39-.81-30.48-2.29c-13.88-2.26-24.27-6.08-26.54-10.96-1-2.15-3.08-7.63-5.75-15.44h0c-7.31-21.33-19.1-59.97-25.98-95.53-8.51-43.99.33-57.56,20.16-66.58h0c2.06-.95,4.23-1.83,6.52-2.7,5.39-2.05,12.93-3.79,21.67-5.2,24.27-3.87,57.83-5.03,80.51-2.26,6.07.73,11.37,1.76,15.5,3.08,1.67.54,3.27,1.15,4.79,1.85,19.71,8.99,27.27,31.45,23.47,69.61Z"/>
    <path class="cls-10" d="m268.76,310H41.24c3.57-9.71,8.61-12.41,24.67-20.68,6.66-3.43,14.6-7.41,23.75-12.69l129.79-4.38c11.48,7.62,20.43,12.84,27.29,17.07,14.11,8.69,18.05,8.76,22,20.68Z"/>
    <path class="cls-16" d="m217.78,242.99c-41.4-8.55-103.42-9.39-123.48-1.09,6.73,9.32,14.78,18.75,14.78,18.75,0,0,12.45,8.16,47.77,8.16s60.92-25.82,60.92-25.82Z"/>
    <path class="cls-9" d="m135.86,72.86c-.72,0-1.38-.49-1.55-1.22l-3.97-16.31c-.26-1.09-1.14-1.94-2.23-2.19l-27.02-5.99c-.86-.19-1.41-1.05-1.22-1.91.19-.86,1.05-1.41,1.91-1.22l27.02,5.99c2.27.5,4.1,2.29,4.65,4.55l3.97,16.31c.21.86-.32,1.72-1.18,1.93-.13.03-.25.05-.38.05Z"/>
    <ellipse class="cls-10" cx="100.2" cy="45.59" rx="5.46" ry="5.63" transform="translate(-6.34 17.87) rotate(-9.88)"/>
    <path class="cls-9" d="m246.75,289.32s-93.44,34.72-180.84,0c6.66-3.43,14.6-7.41,23.75-12.69l129.79-4.38c11.48,7.62,20.43,12.84,27.29,17.07Z"/>
    <g>
      <path class="cls-17" d="m196.05,272h-75.75s-.07-4.6-.34-12.01c-.39-10.49-1.2-26.63-2.8-43.34l79.34,3.88s-.32,5.8-.54,15.13c-.22,9.33-.32,22.19.09,36.34Z"/>
      <g>
        <path class="cls-4" d="m112.47,204.21s-.28.51-.79,1.2c-.52.72-1.27,1.66-2.18,2.47-2.03,1.82-4.88,3.08-7.81.25-.12-.11-.24-.24-.35-.37-.2-.21-.4-.44-.59-.69-6.62-8.42-11.75-29.83-6.28-35.01,2.51-2.39,7.85-1.69,15.15,4.12l2.85,28.02Z"/>
        <path class="cls-17" d="m111.68,205.41c-.52.72-1.27,1.66-2.18,2.47-2.03,1.82-4.88,3.08-7.81.25-.12-.11-.24-.24-.35-.37-.2-.21-.4-.44-.59-.69-6.62-8.42-11.75-29.83-6.28-35.01l12.04,18.12c-4.24,4.32-3.21,8.32-1.41,11.06,1.5,2.28,3.93,3.74,6.59,4.16h0Z"/>
      </g>
      <g>
        <path class="cls-4" d="m211.23,206.96c-3.33,4.76-7,2.91-9.37.74-1.52-1.4-2.49-2.93-2.49-2.93l.5-28.14c7.47-7.76,13.07-7.23,15.7-4.99,5.75,4.87,1.81,26.53-4.34,35.32Z"/>
        <path class="cls-17" d="m211.23,206.96c-3.33,4.76-7,2.91-9.37.74l1.38-2.43s13.44-5.03,4.02-15l8.31-18.63c5.75,4.87,1.81,26.53-4.34,35.32Z"/>
      </g>
      <path class="cls-4" d="m105.94,177.51c1.03,15.6.11,29.56,8.26,44.39,5.78,10.51,19.88,23.17,28.58,30,5.13,4.02,24.23,4.83,31.16-.87,7.91-6.51,18.41-13.94,25.58-28.36,7.52-15.12,4.94-36,4.77-54.12-.17-18.12-1.81-39.55-6.97-53.09-5.16-13.54-77.19-10.46-84.24,2.23-7.05,12.68-8.17,44.22-7.14,59.82Z"/>
      <path class="cls-5" d="m127.06,114.81c6.1,15.24,24.56,7.39,24.56,7.39,12.4,18.61,27.41,6.78,27.41,6.78,9.69,10.53,17.64,6.53,18.33-1.63.69-8.17-52.7-33.6-70.3-12.54Z"/>
      <path class="cls-5" d="m192.04,128.33c-4.72,17.38,9.82,21.23,9.82,21.23l-5.36-19.38-4.46-1.85Z"/>
      <path class="cls-11" d="m177.23,119.44c-9.87,14.65-27.27,8.97-29.73-1.25-11.81,9.02-17.72-3.38-17.72-3.38-6.1,9.2-12.32,4.98-12.32,4.98,5.99,10.03-5.28,16.07-5.28,16.07,3.32,18.21-3.78,32.85-3.78,32.85,5.67,6.44-1.69,14.86-1.69,14.86-8.26-17.57-5.32-35.79-5.32-35.79-5.2-5.15,2.38-14.31,2.38-14.31-18.44-24.74,4.79-28.13,6.77-27.97-4.35-21.23,14.39-20.12,19.47-11.23,2.21-9.98,8.46-7.75,10.04-3.57,3.47-14.42,16.82-7.54,15.09-3.84,9.39-12.56,16.7-1.33,16.7-1.33,11.84-6.84,20.08,3.27,16.38,12.44,15.23-9.56,25.84,10.95,14.61,24.48,12.6,3.38,4.57,19.45,4.57,19.45,5.51,3.87.28,9.18.43,9.18,4.84,11.93-2.66,28.62-2.66,28.62-7.42-9.55-4.55-30.59-4.55-30.75-10.34-12.03-4.81-19.31-4.81-19.31-14.45,7.17-18.58-10.36-18.58-10.2Z"/>
      <path class="cls-15" d="m155.92,207.75c-2.86,0-6.49-.77-9.17-2.04-2.97-1.4-4.91-4.12-4.83-6.76.04-1.41.73-4.03,4.88-5.68l1.19,2.97c-1.28.51-2.82,1.42-2.87,2.81-.04,1.32,1.25,2.94,3,3.77,3.09,1.46,7.35,2,9.38,1.6,5.05-1.01,8.57-3.78,8.58-5.63,0-1.13-1.7-2.7-6.5-3.7l-1.28-.27.22-27.41,3.87-2.99,1.96,2.53-2.64,2.04-.19,23.26c6.4,1.62,7.78,4.42,7.77,6.55-.02,4.25-5.76,7.68-11.16,8.76-.65.13-1.4.19-2.21.19Z"/>
      <ellipse class="cls-5" cx="157.51" cy="231.58" rx="2.68" ry="5.11" transform="translate(-78.27 382.74) rotate(-88.44)"/>
      <g>
        <path class="cls-3" d="m177.51,217.21c-.45.39-.95.81-1.48,1.22-4.18,3.3-10.77,7.18-18.67,7.18s-14.54-3.65-19.09-6.85c-.28-.2-.55-.4-.81-.58-.27-.19-.53-.39-.79-.58-1.5-1.17-.75-3.61,1.14-3.68h.02c.38,0,.75-.02,1.12-.04,11.14-.32,21.35-1.07,37.22-.28.05,0,.07,0,.12,0,1.81.09,2.59,2.39,1.21,3.6Z"/>
        <g class="cls-2">
          <path class="cls-8" d="m135.71,214.95c9.63,5.36,21.41,6.6,32.18,4.84,0,0,.53,1.78.53,1.78-8.43,2.57-17.71,2.03-26.04-.73-2.78-.98-5.48-2.29-7.9-4.01l1.23-1.88h0Z"/>
        </g>
        <path class="cls-8" d="m138.96,213.88l-.69,4.88c-.28-.2-.55-.4-.81-.58-.27-.19-.53-.39-.79-.58-1.5-1.17-.75-3.61,1.14-3.68h.02c.38,0,.75-.02,1.12-.04Z"/>
        <path class="cls-3" d="m177.52,217.21c-.45.39-.95.81-1.49,1.22l.14-4.83s.08,0,.13,0c1.8.09,2.59,2.39,1.21,3.6Z"/>
      </g>
      <ellipse class="cls-7" cx="188.02" cy="193.42" rx="7.72" ry="8.74" transform="translate(-74.98 253.37) rotate(-58.65)"/>
      <ellipse class="cls-7" cx="125.02" cy="193.46" rx="8.85" ry="7.74" transform="translate(-75.85 80.72) rotate(-27.82)"/>
      <path class="cls-12" d="m194.9,166.36c-4.3-1.2-8.79-3.91-12.99-4.59-4.24-.33-9.02,1.53-13.44,1.98-1.1.16-1.59-1.39-.62-1.9,7.59-3.93,14.06-6.26,21.84-1.22,2.11,1.23,4.13,2.51,6.1,3.95.92.65.17,2.13-.89,1.79h0Z"/>
      <path class="cls-12" d="m146.68,164.14c-15.18-2.86-14.97-5.03-28.89,3.37-.96.54-1.99-.71-1.27-1.54,6.35-7.72,13.68-11.27,23.37-7.31,2.63.98,5.11,2.18,7.49,3.61.95.56.39,2.08-.69,1.88h0Z"/>
      <g>
        <g>
          <path class="cls-3" d="m183.38,177.65c-2.64.38-5.62.49-8.2.26-3.79-.33-6.7-1.4-6.34-3.47.41-2.38,2.93-3.8,6.11-4.41,2.67-.51,5.8-.46,8.54.07,3.58.7,6.5,2.22,6.88,4.34.27,1.47-2.96,2.65-7,3.22Z"/>
          <path class="cls-20" d="m183.38,177.65c-2.64.38-5.62.49-8.2.26-.9-.88-1.51-2.07-1.66-3.41-.18-1.69.38-3.3,1.43-4.47,2.67-.51,5.8-.46,8.54.07.72.83,1.21,1.89,1.33,3.07.19,1.7-.39,3.32-1.45,4.49Z"/>
        </g>
        <g>
          <path class="cls-3" d="m137.86,177.91c-2.57.23-5.55.12-8.2-.26-4.04-.56-7.27-1.74-7-3.22.39-2.13,3.31-3.64,6.88-4.34,2.74-.52,5.87-.58,8.54-.07,3.18.61,5.71,2.04,6.11,4.41.36,2.08-2.56,3.15-6.35,3.47Z"/>
          <path class="cls-20" d="m139.52,174.49c-.14,1.35-.76,2.53-1.66,3.41-2.57.23-5.55.12-8.2-.26-1.06-1.18-1.64-2.79-1.45-4.49.13-1.18.61-2.24,1.33-3.07,2.74-.52,5.87-.58,8.54-.07,1.05,1.18,1.61,2.78,1.43,4.47Z"/>
        </g>
        <path class="cls-20" d="m189.78,174.64c-2.99-4.52-17.79-5.34-20.31-.06-.25.71-1.35.45-1.25-.29,1.53-8.36,21.1-8.41,22.78-.06.11.71-.87,1.03-1.22.42h0Z"/>
        <path class="cls-20" d="m122.06,174.23c1.68-8.34,21.24-8.3,22.78.06.09.75-1,1-1.25.29-2.51-5.27-17.3-4.47-20.31.06-.33.63-1.34.27-1.22-.42h0Z"/>
      </g>
      <path class="cls-5" d="m179.99,179.37c-4.22,0-8.86-.68-11.37-3.26-.38-.4-.38-1.03.02-1.41.4-.38,1.03-.38,1.41.02,4.45,4.59,18.32,1.86,18.46,1.84.54-.11,1.07.24,1.18.78.11.54-.24,1.07-.78,1.18-.32.06-4.37.86-8.92.86Z"/>
      <path class="cls-5" d="m133.09,179.37c-4.55,0-8.61-.8-8.93-.86-.54-.11-.89-.64-.78-1.18s.64-.9,1.18-.78c.14.03,14.01,2.75,18.46-1.84.38-.4,1.02-.41,1.41-.02.4.38.41,1.02.02,1.41-2.51,2.58-7.15,3.26-11.37,3.26Z"/>
      <path class="cls-4" d="m196.05,273h-75.75s-.07-5.6-.34-13.01c23.5,4.15,56.49,13.66,76-24.32-.22,9.33-.32,23.19.09,37.34Z"/>
      <g class="cls-21">
        <g>
          <path class="cls-12" d="m179.87,115.59c-.37,0-.73-.13-1.02-.4-.6-.57-.64-1.52-.07-2.12.87-.93.79-2.61-.16-3.52-1.33-1.27-4.57-1.04-9.33,3.79-.53.54-1.39.6-1.99.14-.6-.46-.76-1.3-.37-1.95,1.52-2.56,1.01-6.14-1.08-7.5-2.48-1.62-7.49-.07-14.11,9.15-.48.67-1.42.83-2.09.34-.67-.48-.83-1.42-.34-2.09,9.62-13.39,15.92-11.39,18.19-9.91,2.09,1.37,3.25,3.93,3.3,6.62,4.51-3.1,7.97-2.59,9.9-.74,2.15,2.06,2.27,5.6.27,7.74-.29.32-.69.48-1.1.48Z"/>
          <path class="cls-12" d="m120.2,111.3c-.45,0-.9-.21-1.2-.6-2.48-3.28-2.6-7.32-.31-10.06,1.04-1.24,4.88-4.68,13.43-1.4-.14-1.88.38-3.79,1.76-4.96,1.37-1.16,4.52-2.35,10.28,2.63.63.54.69,1.49.15,2.12-.54.63-1.49.69-2.12.15-3.44-2.98-5.55-3.31-6.38-2.61-.95.8-.98,3.07-.06,4.58.35.57.27,1.31-.18,1.8-.46.49-1.18.62-1.78.32-6.93-3.52-11.16-2.67-12.81-.71-1.37,1.64-1.21,4.18.41,6.32.5.66.37,1.6-.29,2.1-.27.2-.59.3-.9.3Z"/>
          <path class="cls-12" d="m194.68,110.1c-.18,0-.37-.03-.55-.11-.77-.31-1.15-1.18-.84-1.95.8-2.03.05-4.68-1.71-6.04-1.97-1.52-4.67-1.18-7.6.97-.67.49-1.61.35-2.1-.32-.49-.67-.34-1.61.32-2.1,5.75-4.21,9.75-2.05,11.21-.93,2.81,2.17,3.95,6.26,2.66,9.52-.23.59-.8.95-1.4.95Z"/>
          <path class="cls-12" d="m164.32,97.15s-.08,0-.13,0c-5.91-.06-12.63-4.17-13.75-15.53-.08-.82.52-1.56,1.35-1.64.83-.08,1.56.52,1.64,1.35.78,7.97,4.82,12.77,10.79,12.83,6.02.03,13.05-5.09,14.19-14.75.1-.82.84-1.41,1.67-1.31.82.1,1.41.84,1.31,1.67-1.33,11.33-9.77,17.4-17.07,17.4Z"/>
          <path class="cls-12" d="m192.41,137.82c-.61,0-1.18-.38-1.41-.98-.12-.34-2.99-8.34,1.41-15.09,3.31-5.08,9.73-7.94,19.08-8.52.84-.06,1.54.58,1.59,1.4.05.83-.58,1.54-1.4,1.59-8.35.52-13.99,2.93-16.76,7.17-3.59,5.5-1.13,12.34-1.11,12.41.29.78-.11,1.64-.89,1.93-.17.06-.35.09-.52.09Z"/>
          <path class="cls-12" d="m120.62,136.29c-5.98,0-10.02-4.85-13.46-8.97-4.18-5.02-6.96-7.99-11.27-5.78-.74.38-1.64.09-2.02-.65-.38-.74-.09-1.64.65-2.02,6.67-3.42,11.07,1.87,14.95,6.53,4.72,5.67,9.18,11.02,17.91,5.57.7-.44,1.63-.22,2.07.48.44.7.22,1.63-.48,2.07-3.17,1.97-5.92,2.77-8.35,2.77Z"/>
          <path class="cls-12" d="m95.17,163.86c-.29,0-.58-.08-.83-.25-.69-.46-.87-1.39-.41-2.08,9.02-13.45,22.16-11.46,22.72-11.36.82.13,1.37.91,1.24,1.72-.13.82-.9,1.37-1.72,1.24-.47-.08-11.82-1.72-19.74,10.08-.29.43-.76.66-1.25.66Z"/>
          <path class="cls-12" d="m133.23,115.59c-.76,0-1.41-.57-1.49-1.35-.24-2.3,1.39-5.55,4.19-6.71,1.72-.71,5.21-1.17,9.24,3.78.52.64.43,1.59-.22,2.11-.64.52-1.59.43-2.11-.22-2.08-2.55-4.13-3.58-5.77-2.9-1.57.65-2.46,2.61-2.35,3.63.08.82-.51,1.56-1.34,1.65-.05,0-.1,0-.16,0Z"/>
        </g>
      </g>
    </g>
    <path class="cls-10" d="m240.94,144.18h0c-19.15-6.87-24.64-7.6-23.46-69.61,19.71,8.99,27.27,31.45,23.47,69.61Z"/>
    <path class="cls-10" d="m68.32,146.37c-8.51-43.99.33-57.56,20.16-66.58,1.65,35.4,6.27,62.53-20.16,66.58Z"/>
    <path class="cls-10" d="m217.78,242.99c-3.05,9.38-5.57,15.97-6.89,17.66-2.91,3.69-12.31,6.61-25.53,8.31.25-.65,11.51-30.31,32.41-25.97h0Z"/>
    <path class="cls-10" d="m126.59,268.31c-13.88-2.26-24.27-6.08-26.54-10.96-1-2.15-3.08-7.63-5.75-15.44h0c30.22-3.14,32.29,26.4,32.29,26.4Z"/>
    <path class="cls-10" d="m197.19,69.64s-45.14,13.42-80.51,2.27h0c24.27-3.88,57.83-5.04,80.51-2.27Z"/>
    <ellipse class="cls-9" cx="228.42" cy="103.22" rx="4.75" ry="10.61" transform="translate(-18.7 61.24) rotate(-14.68)"/>
    <ellipse class="cls-9" cx="78.16" cy="103.22" rx="10.61" ry="4.75" transform="translate(-41.5 152.68) rotate(-75.32)"/>
    <path class="cls-9" d="m155.93,76.69c-.83,0-1.5-.67-1.5-1.5v-5.88c0-.83.67-1.5,1.5-1.5s1.5.67,1.5,1.5v5.88c0,.83-.67,1.5-1.5,1.5Z"/>
    <path class="cls-9" d="m241.48,130.97c-.11,0-.22-.01-.33-.04l-19.54-4.39c-.81-.18-1.32-.98-1.14-1.79s.98-1.32,1.79-1.13l19.54,4.39c.81.18,1.32.98,1.14,1.79-.16.7-.78,1.17-1.46,1.17Z"/>
    <path class="cls-9" d="m66.05,134.95c-.62,0-1.2-.39-1.42-1.01-.27-.78.15-1.64.93-1.91l20.91-7.19c.78-.27,1.64.15,1.91.93.27.78-.15,1.64-.93,1.91l-20.91,7.19c-.16.06-.33.08-.49.08Z"/>
    <polygon class="cls-18" points="133.62 283.32 133.62 283.31 135.62 283.31 133.62 283.32"/>
    <ellipse class="cls-3" cx="201.3" cy="93.83" rx="8.3" ry="14.35" transform="translate(-20.43 81.17) rotate(-21.72)"/>
    <ellipse class="cls-3" cx="209.33" cy="124.3" rx="4.58" ry="5.25" transform="translate(-27.62 68.39) rotate(-17.43)"/>
    <path class="cls-10" d="m223.87,275.14c-12.21,4.72-26.76,7.73-41.1,8.9-4.4,15.08-39.9,22.33-48.16-.72-17.93-1.77-34.7-3.78-44.95-6.68l13.13-15.99c7.9,8.31,93.42,11.6,108.51,0l12.57,14.5Z"/>
    <ellipse class="cls-9" cx="158.02" cy="284.54" rx="9.3" ry="7.19" transform="translate(-4.92 2.79) rotate(-1)"/>
    <path class="cls-19" d="m155.95,291.37c-.21,0-.42-.04-.62-.13-.76-.34-1.09-1.23-.75-1.98l4.73-10.51c.34-.76,1.23-1.09,1.98-.75.76.34,1.09,1.23.75,1.98l-4.73,10.51c-.25.56-.8.88-1.37.88Z"/>
    <path class="cls-9" d="m158.65,270.31c-.78,0-1.56,0-2.33,0-20.46-.16-47-2.47-54.46-8.49-.65-.52-.75-1.46-.23-2.11s1.46-.75,2.11-.23c11.52,9.28,92.3,11.44,106.63,0,.65-.52,1.59-.41,2.11.24.52.65.41,1.59-.24,2.11-7.86,6.28-32.4,8.49-53.6,8.49Z"/>
    <path class="cls-9" d="m138.94,268.23c21.74,13.25,40.66,0,40.66,0h-40.66Z"/>
    <path class="cls-9" d="m199.23,286.04c-.66,0-1.27-.44-1.45-1.11l-4.83-17.9c-.22-.8.26-1.62,1.06-1.84.8-.21,1.62.26,1.84,1.06l4.83,17.9c.22.8-.26,1.62-1.06,1.84-.13.04-.26.05-.39.05Z"/>
    <path class="cls-9" d="m108.93,284.81c-.17,0-.34-.03-.51-.09-.78-.28-1.19-1.14-.9-1.92l6.13-17.07c.28-.78,1.14-1.18,1.92-.91.78.28,1.19,1.14.9,1.92l-6.13,17.07c-.22.61-.8.99-1.41.99Z"/>
    <ellipse class="cls-14" cx="227.19" cy="255.14" rx="5.6" ry="4.88" transform="translate(-42.77 45.78) rotate(-10.52)"/>
    <ellipse class="cls-14" cx="248.15" cy="197.17" rx="5.56" ry="6.38" transform="translate(-64.97 246.24) rotate(-47.37)"/>
    <circle class="cls-14" cx="248.69" cy="171.76" r="3.57"/>
    <circle class="cls-14" cx="179.41" cy="54.23" r="4.26"/>
    <ellipse class="cls-14" cx="154.85" cy="53.47" rx="4.58" ry="5.25" transform="translate(58.43 185.91) rotate(-73)"/>
    <circle class="cls-14" cx="57.82" cy="90.85" r="4.09"/>
    <circle class="cls-14" cx="66.18" cy="188.83" r="3.17"/>
    <ellipse class="cls-14" cx="81.24" cy="235.87" rx="3.49" ry="4" transform="translate(-167.93 223.7) rotate(-68.2)"/>
    <ellipse class="cls-14" cx="243.96" cy="80.18" rx="3.76" ry="4.31" transform="translate(56.88 256.1) rotate(-61.43)"/>
  </g>
</svg>