<?xml version="1.0" encoding="UTF-8"?>
<svg xmlns="http://www.w3.org/2000/svg" xmlns:xlink="http://www.w3.org/1999/xlink" viewBox="0 0 310 310">
  <defs>
    <style>
      .cls-1, .cls-2, .cls-3, .cls-4, .cls-5 {
        fill: none;
      }

      .cls-6 {
        clip-path: url(#clippath);
      }

      .cls-7 {
        mask: url(#mask);
      }

      .cls-8 {
        filter: url(#luminosity-invert);
      }

      .cls-9 {
        fill: #f3a087;
      }

      .cls-10 {
        fill: #f2f2f2;
      }

      .cls-11 {
        fill: #f5f5f5;
      }

      .cls-12 {
        fill: #e98f7d;
      }

      .cls-13 {
        fill: #fff;
      }

      .cls-14 {
        fill: #e6d6d5;
      }

      .cls-15 {
        fill: #818181;
      }

      .cls-16 {
        fill: #8247c7;
      }

      .cls-17 {
        fill: #80483c;
      }

      .cls-18 {
        fill: #b4b4b4;
      }

      .cls-19 {
        fill: #b6b6b6;
      }

      .cls-20 {
        fill: #b780f6;
      }

      .cls-21 {
        fill: #ab6c57;
      }

      .cls-22 {
        fill: #c9c9c9;
      }

      .cls-23 {
        fill: #d27463;
      }

      .cls-24 {
        fill: #c3c3c3;
      }

      .cls-25 {
        fill: #d3b2f6;
      }

      .cls-26 {
        fill: #d5d5d5;
      }

      .cls-27 {
        fill: #dfdfdf;
      }

      .cls-28 {
        fill: #e18372;
      }

      .cls-29 {
        fill: #202020;
      }

      .cls-30 {
        fill: #090909;
      }

      .cls-31 {
        fill: #150033;
      }

      .cls-32 {
        fill: #595959;
      }

      .cls-33 {
        fill: #828282;
      }

      .cls-34 {
        fill: #4d4d4d;
      }

      .cls-35 {
        fill: #9870fc;
        mix-blend-mode: multiply;
      }

      .cls-36 {
        clip-path: url(#clippath-1);
      }

      .cls-37 {
        clip-path: url(#clippath-4);
      }

      .cls-38 {
        clip-path: url(#clippath-3);
      }

      .cls-39 {
        clip-path: url(#clippath-2);
      }

      .cls-40 {
        clip-path: url(#clippath-7);
      }

      .cls-41 {
        clip-path: url(#clippath-8);
      }

      .cls-42 {
        clip-path: url(#clippath-6);
      }

      .cls-43 {
        clip-path: url(#clippath-5);
      }

      .cls-44 {
        clip-path: url(#clippath-9);
      }

      .cls-2 {
        stroke: #676767;
      }

      .cls-2, .cls-3, .cls-4 {
        stroke-width: 2px;
      }

      .cls-2, .cls-3, .cls-4, .cls-5 {
        stroke-miterlimit: 10;
      }

      .cls-3 {
        stroke: #828282;
      }

      .cls-4 {
        stroke: #595959;
      }

      .cls-5 {
        stroke: #4d4d4d;
        stroke-width: 2.2px;
      }

      .cls-45 {
        isolation: isolate;
      }
    </style>
    <filter id="luminosity-invert" x="-3.25" y="0" width="316.04" height="311.98" color-interpolation-filters="sRGB" filterUnits="userSpaceOnUse">
      <feColorMatrix result="cm" values="-1 0 0 0 1 0 -1 0 0 1 0 0 -1 0 1 0 0 0 1 0"/>
    </filter>
    <clipPath id="clippath">
      <rect class="cls-1" x="-.03" y="0" width="310.03" height="310.07"/>
    </clipPath>
    <clipPath id="clippath-1">
      <ellipse class="cls-1" cx="85.19" cy="22.89" rx="14.19" ry="13.04" transform="translate(-2.79 29.32) rotate(-19.22)"/>
    </clipPath>
    <clipPath id="clippath-2">
      <ellipse class="cls-1" cx="217.95" cy="27.65" rx="10.36" ry="12.47" transform="translate(157.11 238.76) rotate(-81.15)"/>
    </clipPath>
    <clipPath id="clippath-3">
      <rect class="cls-1" x="-.03" y="0" width="310.03" height="310.07"/>
    </clipPath>
    <clipPath id="clippath-4">
      <ellipse class="cls-1" cx="85.19" cy="22.89" rx="14.19" ry="13.04" transform="translate(-2.79 29.32) rotate(-19.22)"/>
    </clipPath>
    <clipPath id="clippath-5">
      <ellipse class="cls-15" cx="217.95" cy="27.65" rx="10.36" ry="12.47" transform="translate(157.11 238.76) rotate(-81.15)"/>
    </clipPath>
    <clipPath id="clippath-6">
      <rect class="cls-1" x="-.03" y="0" width="310.03" height="310.07"/>
    </clipPath>
    <clipPath id="clippath-7">
      <ellipse class="cls-1" cx="85.19" cy="22.89" rx="14.19" ry="13.04" transform="translate(-2.79 29.32) rotate(-19.22)"/>
    </clipPath>
    <clipPath id="clippath-8">
      <ellipse class="cls-1" cx="217.95" cy="27.65" rx="10.36" ry="12.47" transform="translate(157.11 238.76) rotate(-81.15)"/>
    </clipPath>
    <mask id="mask" x="-3.25" y="0" width="316.04" height="311.98" maskUnits="userSpaceOnUse">
      <g class="cls-8">
        <g>
          <g>
            <g>
              <rect class="cls-1" x="-.03" y="0" width="310.03" height="310.07"/>
              <path class="cls-1" d="m310.01,219.62c-23.08-21.66-45.09-11.68-36.21,15.1-26.07-11.07-36.66,10.24-30.54,25.55-27.54-25.37-57.67,10.88-57.67,10.88,92.25,13.2,124.42-1.28,124.42-1.28v-50.25Z"/>
              <path class="cls-1" d="m-.03,218.91c27.63-11.63,46.82,7.6,42.43,29.75,27.67-7.63,50.17,11.82,50.12,30.77,19.15-25.06,46.92,1.44,46.92,1.44C86.93,295.66-.03,276.19-.03,276.19v-57.28Z"/>
              <path class="cls-1" d="m55.89,0c-14.33,20.09-35.22,8.11-35.22,8.11C16.47,28.87-.03,22.93-.03,22.93V0h55.91Z"/>
              <path class="cls-1" d="m190.39,0c20.05,25.72,50.48,19.87,62.7,5.17,7.52,57.59,56.91,33.54,56.91,33.54V0h-119.62Z"/>
              <g>
                <g>
                  <polygon class="cls-1" points="96.28 270.45 115.96 286.05 97.99 285.41 96.28 270.45"/>
                  <polygon class="cls-1" points="66.02 256.86 79.54 276.01 64.38 280.87 66.02 256.86"/>
                  <polygon class="cls-1" points="43.41 243.19 50.36 258.61 33.72 265.72 43.41 243.19"/>
                  <polygon class="cls-1" points="19.59 229.09 24.96 242.78 10.18 245.87 19.59 229.09"/>
                </g>
                <path class="cls-1" d="m1.44,228.18c20.26-9.58,20.94,5.15,17.86,13.79,25.14-13.03,29.22,6.18,21.65,16.08,28.48-15.91,30.09,8.78,26.65,14.18,29.71-15.28,38.66,7.83,30.39,13.18C39.95,289.4.22,258.56,1.44,228.18Z"/>
                <ellipse class="cls-1" cx="91.41" cy="276.19" rx="4.58" ry="3.42" transform="translate(-85.14 44.96) rotate(-19.05)"/>
                <ellipse class="cls-1" cx="61.95" cy="266.54" rx="3.9" ry="5.22" transform="translate(-9.7 2.44) rotate(-2.1)"/>
                <ellipse class="cls-1" cx="36.27" cy="252.29" rx="4.82" ry="3.6" transform="translate(-217.73 231.15) rotate(-77.06)"/>
                <ellipse class="cls-1" cx="15.5" cy="236.09" rx="3.76" ry="2.81" transform="translate(-221.08 239.16) rotate(-86.99)"/>
              </g>
              <g>
                <polygon class="cls-1" points="250.13 247.6 224.9 275.41 245.67 275.41 250.13 247.6"/>
                <polygon class="cls-1" points="276.16 229.98 255.87 249.68 269.36 258.38 276.16 229.98"/>
                <polygon class="cls-1" points="296.85 224.74 282.68 235.39 290.47 245.08 296.85 224.74"/>
                <path class="cls-1" d="m245.81,269.55c-1.86-30.51,15.45-29.19,21.37-17.57,6.58-34.2,19.73-24.33,21.48-14.47,8.11-23.89,21.35-11.4,21.35-3.07v12.16s-42.61,31.97-64.2,22.95Z"/>
                <ellipse class="cls-1" cx="276.23" cy="242.66" rx="4.78" ry="2.84" transform="translate(-32.49 442.34) rotate(-74.19)"/>
                <ellipse class="cls-1" cx="296.6" cy="233.89" rx="4.17" ry="3.05" transform="translate(-70.55 322.65) rotate(-51.85)"/>
                <ellipse class="cls-1" cx="253.01" cy="258.95" rx="5.54" ry="3.4" transform="translate(-67.86 426.62) rotate(-73.25)"/>
              </g>
              <path class="cls-1" d="m310.01,239.05c-22.2-12.44-37.63,31.57-75.23,29.26-43.48-2.67-54.06-8.19-105.39,10.24-38.71,13.9-97.6,0-129.41-53.4v84.92h310.03v-71.02Z"/>
              <path class="cls-1" d="m310.01,269.88c-64.51,0-100.25,40.2-100.25,40.2h100.25v-40.2Z"/>
              <g>
                <path class="cls-1" d="m276.34,260.76c-11.61,5.77,7.13,12.38,20.83,3.03,13.7-9.35,1.02-11.85-7.1-9.13-8.12,2.71-2.13.34-13.73,6.11Z"/>
                <path class="cls-1" d="m290.73,263.71c2.13,4.43,9.74,2.47,7.39-3.44l-7.39,3.44Z"/>
                <path class="cls-1" d="m299.19,259.54c-.71.52-1.49,1.02-2.34,1.5-1.78,1.01-3.85,1.92-6.12,2.67-.67.22-1.34.42-2,.59h-.01c-.78.22-1.54.39-2.3.54-6.39,1.25-11.74.38-12.82-2.39-.83-2.15,1.15-4.94,4.84-7.36.62-.42,1.29-.82,2-1.2,1.65-.89,3.54-1.69,5.58-2.37,1.02-.33,2.04-.62,3.04-.85,1.61-.38,3.17-.62,4.63-.74,4.84-.41,8.6.59,9.47,2.85.76,1.98-.84,4.49-3.96,6.76Z"/>
                <g>
                  <path class="cls-1" d="m288.72,264.3h-.01c-.78.22-1.54.39-2.3.54,1.56-4-.75-7.19-4.6-8.69-1.08-.46-2.24-.82-3.38-1.05.62-.42,1.29-.82,2-1.2,3.83,1.01,7.68,3.17,8.38,7.33.18,1.05.11,2.08-.09,3.08Z"/>
                  <path class="cls-1" d="m296.85,261.04c.15-2.85-.27-5.88-2.26-8-1.33-1.44-3.48-2.33-5.53-2.37,1.61-.38,3.17-.62,4.63-.74.85.43,1.65.99,2.36,1.66,2.14,2.1,2.98,5.03,3.15,7.94-.71.52-1.49,1.02-2.34,1.5Z"/>
                </g>
              </g>
              <g>
                <path class="cls-1" d="m19.74,16.24c-3.1-5.43-6.26-10.78-5.72-16.24h11.18c.89,5.75-1.81,10.16-5.46,16.24Z"/>
                <path class="cls-1" d="m25.19,32.59c-1.41,14.53-20.84,21.68-14.59,2.69,2.77-8.39,6.25-14.25,9.14-19.05,3.01,5.3,6,10.69,5.44,16.36Z"/>
                <path class="cls-1" d="m28.71,0c-2.55,20.18,10.99,31.76,16.29,28.23C51.86,23.66,25.57,16.65,33.42,0h-4.71Z"/>
              </g>
              <g>
                <path class="cls-1" d="m65.18,310.07H-.03v-48.17c9.36-8.43,21.86-9.39,31.25-4.86,9.92,4.78,16.4,15.66,12.11,30.29,8.56-5.29,15.89-6.45,21.42-5.17,13.43,3.1,16.25,20.55.44,27.9Z"/>
                <path class="cls-1" d="m64.74,282.17c-17.52,15.8-43.99,11.23-33.53-25.12,9.92,4.78,16.4,15.66,12.11,30.29,8.56-5.29,15.89-6.45,21.42-5.17Z"/>
                <path class="cls-1" d="m25.98,267.75c-1.26,1.94-3.92,3.56-7.18,4.12-4.06.72-7.77-.41-9.22-2.59-.31-.46-.53-.95-.62-1.5-.52-3.13,3.05-6.37,7.95-7.24,4.92-.86,9.32.96,9.84,4.1.18,1.06-.11,2.12-.77,3.11Z"/>
                <path class="cls-1" d="m25.98,267.75c-1.26,1.94-3.92,3.56-7.18,4.12-4.06.72-7.77-.41-9.22-2.59-.01-.16-.01-.34.01-.5.3-3.2,4.34-5.47,9.02-5.08,3.42.28,6.24,1.92,7.37,4.04Z"/>
                <ellipse class="cls-1" cx="31.42" cy="277.8" rx="3.99" ry="4.11"/>
                <g>
                  <path class="cls-1" d="m26.68,300.19c-2.31,4.16-8.18,5.17-13.12,2.27-4.23-2.48-6.4-7.03-5.49-10.91.16-.65.39-1.28.72-1.88,2.3-4.16,8.18-5.17,13.12-2.27,2.87,1.69,4.8,4.35,5.43,7.09.48,1.96.29,3.96-.67,5.7Z"/>
                  <path class="cls-1" d="m27.35,294.49c-.08.28-.19.56-.31.82-1.99,4.32-7.77,5.76-12.91,3.24-3.12-1.54-5.29-4.18-6.05-7,.16-.65.39-1.28.72-1.88,2.3-4.16,8.18-5.17,13.12-2.27,2.87,1.69,4.8,4.35,5.43,7.09Z"/>
                </g>
                <ellipse class="cls-1" cx="46" cy="298.57" rx="6.12" ry="5.13" transform="translate(-77.85 23.03) rotate(-15.45)"/>
                <ellipse class="cls-1" cx="66.84" cy="294.25" rx="4.34" ry="5.31" transform="translate(-28.54 7.97) rotate(-5.63)"/>
              </g>
              <g>
                <g>
                  <path class="cls-1" d="m310.01,57.31c-8.33,4.61-16.51,2.02-25.08-.7-1.06-.34-2.12-.67-3.19-1-8.53-2.59-17.21-4.25-25.27,3.11-1.31,1.2-1.52,3.38-.45,4.86,1.06,1.49,3,1.71,4.31.51,5.37-4.91,11.39-4.22,18.17-2.28,1.54.43,3.13.94,4.75,1.45,8.26,2.62,17.33,5.5,26.74,1.59v-7.55Z"/>
                  <path class="cls-1" d="m281.74,55.61c-8.53-2.59-17.21-4.25-25.27,3.11-1.31,1.2-1.52,3.38-.45,4.86,1.06,1.49,3,1.71,4.31.51,5.37-4.91,11.39-4.22,18.17-2.28,2.03-2.35,2.89-4.52,3.23-6.2Z"/>
                </g>
                <g>
                  <path class="cls-1" d="m310.01,68.24c-4.06,4.85-9.05,6.65-13.61,7.05-6.75.58-12.55-1.89-12.99-2.07-1.6-.7-3.42.16-4.06,1.93-.64,1.77.13,3.77,1.73,4.48,3.64,1.62,9.08,2.96,14.91,2.61,4.68-.29,9.6-1.7,14.02-4.95v-9.04Z"/>
                  <path class="cls-1" d="m296.4,75.29c-6.75.58-12.55-1.89-12.99-2.07-1.6-.7-3.42.16-4.06,1.93-.64,1.77.13,3.77,1.73,4.48,3.64,1.62,9.08,2.96,14.9,2.61.84-2.56.78-4.98.41-6.94Z"/>
                </g>
                <g>
                  <path class="cls-1" d="m310.01,45.79c-6.14,2.19-11.8,1.55-17.23-.01-2.75-.79-5.45-1.83-8.11-2.84-4.55-1.75-9.17-3.52-13.9-3.99-.79-.08-1.58-.12-2.37-.12-3.16,0-6.36.67-9.62,2.38-1.51.8-2.17,2.84-1.48,4.58.69,1.74,2.47,2.5,3.96,1.71,3.16-1.66,6.3-2.01,9.54-1.6,3.8.46,7.74,1.97,11.99,3.6,2.95,1.13,6.01,2.3,9.24,3.19,5.52,1.52,11.47,2.18,17.98.29v-7.18Z"/>
                  <path class="cls-1" d="m292.78,45.78c-2.75-.79-5.45-1.83-8.11-2.84-4.55-1.75-9.17-3.52-13.9-3.99-.41,2.09-.51,4.47.03,6.95,3.8.46,7.74,1.97,11.99,3.6,2.95,1.13,6.01,2.3,9.24,3.19-.44-1.85-.43-4.19.75-6.9Z"/>
                </g>
                <g>
                  <path class="cls-1" d="m310.01,37.13c-14.38,1.12-23.03-4.62-27.92-10.09-3.9-4.39-5.42-8.58-5.55-8.98-.47-1.38-1.67-2.24-2.93-2.24-.37,0-.73.08-1.09.23-1.62.67-2.44,2.65-1.84,4.42.04.13,2.22,6.36,8.04,12.41,6,6.24,15.88,12.26,31.29,11.19v-6.94Z"/>
                  <path class="cls-1" d="m282.08,27.04c-3.9-4.39-5.42-8.58-5.55-8.98-.47-1.38-1.67-2.24-2.93-2.24-.37,0-.73.08-1.09.23-1.62.67-2.44,2.65-1.84,4.42.04.13,2.22,6.36,8.04,12.41.59-2.81,2-4.66,3.37-5.84Z"/>
                </g>
                <g>
                  <path class="cls-1" d="m310.01,27.64c-4.43,1.23-7.92.86-10.36-1.12-4.54-3.67-4.67-11.98-4.67-12.06,0-1.81-1.33-3.28-2.97-3.28h0c-1.64,0-2.96,1.47-2.96,3.28,0,.39.06,8.09,4.03,13.96.83,1.25,1.85,2.41,3.08,3.4,3.63,2.94,8.28,3.78,13.87,2.55v-6.72Z"/>
                  <path class="cls-1" d="m299.64,26.52c-4.54-3.67-4.67-11.98-4.67-12.06,0-1.81-1.33-3.28-2.97-3.28h0c-1.64,0-2.96,1.47-2.96,3.28,0,.39.06,8.09,4.03,13.96,4.75.87,6.58-1.89,6.58-1.89Z"/>
                </g>
              </g>
              <ellipse class="cls-1" cx="276.57" cy="280.36" rx="2.44" ry="1.99" transform="translate(-105.19 183.67) rotate(-31.18)"/>
              <circle class="cls-1" cx="303.44" cy="285.27" r="1.97"/>
              <circle class="cls-1" cx="255.96" cy="274.49" r="2.04"/>
              <ellipse class="cls-1" cx="301.72" cy="243.72" rx="2.11" ry="1.72" transform="translate(-31.15 44.64) rotate(-8.05)"/>
              <circle class="cls-1" cx="231.64" cy="273.55" r="1.59"/>
              <ellipse class="cls-1" cx="50.36" cy="278.25" rx="2.21" ry="2.7" transform="translate(-160.62 89.98) rotate(-38)"/>
              <circle class="cls-1" cx="5.83" cy="246.09" r="2.15"/>
              <g class="cls-6">
                <g>
                  <path class="cls-1" d="m-2.3,186.61c11.45-28.9,26.4-13.23,5.38-2.05,43.96-2.97,21.96,28.66-5.38,2.05Z"/>
                  <g>
                    <path class="cls-1" d="m297.87,311.25c-12.27-18.45,10.63-24.75,7.72-6.71"/>
                    <path class="cls-1" d="m291.78,311.25c-10.93-10.06,0-17.46,0-17.46-7.22-10.85,5.26-12.11,5.26-12.11l-2.81-6.08"/>
                    <path class="cls-1" d="m281.06,311.25c5.86-18.55-5.95-26.94-8.35-14.89h-4.98"/>
                  </g>
                  <g>
                    <path class="cls-1" d="m310.98,199.99c2.75-.9,3.69-14.81-6.95-32.23-.5-.82-.98-1.59-1.45-2.32,2.06,19.09,6.01,35.34,8.41,34.56Z"/>
                    <path class="cls-1" d="m273.86,129.68c15.26,22.08,19.85,22.01,28.71,35.75-.29-2.71-.7-5.5-1.27-8.31-4.6-22.63-6.94-33.39-20.83-47.04-13.89-13.65-20.55-.57-6.61,19.6Z"/>
                  </g>
                  <g>
                    <path class="cls-1" d="m-3.05,94.49c39.51,7.94,29.17-28.05,13.65-10.49"/>
                    <path class="cls-1" d="m-2.06,99.42c17.72,13.83,22.76-14.15,40.83,6.43"/>
                    <path class="cls-1" d="m-2.06,113.7c18.64,3.48,28.1,12.45,26.28,19.29-1.82,6.85-15.26,3.15-16.38-8.46s7.84-16.02,19.54-17.35"/>
                  </g>
                </g>
              </g>
            </g>
            <g>
              <g>
                <path class="cls-1" d="m74.37,15.02l19.43-2.96c-6.92-13.89-22-7.74-19.43,2.96Z"/>
                <path class="cls-1" d="m74.38,31.84c-1.12,6.97,5,7.09,7.32,3.96l-7.32-3.96Z"/>
                <path class="cls-1" d="m71.16,23.31c0,2.22-6,9.63-9.18,7.45-3.18-2.18-2.98-14,0-15.5,2.98-1.5,9.18,5.83,9.18,8.06Z"/>
                <ellipse class="cls-1" cx="85.19" cy="22.89" rx="14.19" ry="13.04" transform="translate(-2.79 29.32) rotate(-19.22)"/>
                <ellipse class="cls-1" cx="92.53" cy="22.02" rx="2.72" ry="2.5" transform="translate(42.06 102.64) rotate(-71.34)"/>
                <ellipse class="cls-1" cx="77.94" cy="22.39" rx="3.47" ry="3.78" transform="translate(33.96 90.52) rotate(-73.18)"/>
                <g class="cls-36">
                  <path class="cls-1" d="m86.87,8.14c-6.75,11.82-1.68,28.71-1.68,28.71"/>
                </g>
              </g>
              <ellipse class="cls-1" cx="103.25" cy="10.96" rx="3.75" ry="4.08" transform="translate(22.45 76.16) rotate(-44.96)"/>
            </g>
            <g>
              <ellipse class="cls-1" cx="199.65" cy="19.36" rx="3.64" ry="3.96" transform="translate(100.79 193.89) rotate(-66.01)"/>
              <g>
                <ellipse class="cls-1" cx="217.95" cy="27.65" rx="10.36" ry="12.47" transform="translate(157.11 238.76) rotate(-81.15)"/>
                <path class="cls-1" d="m224.34,19.04h-13.94c7.64-12.1,16.17-5.03,13.94,0Z"/>
                <path class="cls-1" d="m230.05,27.64c0-3.81,4-8.39,6.48-6.36s2.72,10.03.64,12.52c-2.08,2.49-7.12-2.34-7.12-6.15Z"/>
                <g class="cls-39">
                  <line class="cls-1" x1="217.96" y1="16.48" x2="220.11" y2="38.79"/>
                </g>
                <path class="cls-1" d="m224.93,28.98c1.88-.58,2.49-2.77,1.09-3.93-1.39-1.17-3.82,0-4.31,1.75-.49,1.75,1.33,2.77,3.21,2.19Z"/>
                <ellipse class="cls-1" cx="213.3" cy="26.37" rx="1.93" ry="2.33" transform="translate(6.11 83.51) rotate(-22.47)"/>
              </g>
            </g>
          </g>
          <g>
            <g>
              <rect class="cls-22" x="-.03" y="0" width="310.03" height="310.07"/>
              <path class="cls-11" d="m310.01,219.62c-23.08-21.66-45.09-11.68-36.21,15.1-26.07-11.07-36.66,10.24-30.54,25.55-27.54-25.37-57.67,10.88-57.67,10.88,92.25,13.2,124.42-1.28,124.42-1.28v-50.25Z"/>
              <path class="cls-11" d="m-.03,218.91c27.63-11.63,46.82,7.6,42.43,29.75,27.67-7.63,50.17,11.82,50.12,30.77,19.15-25.06,46.92,1.44,46.92,1.44C86.93,295.66-.03,276.19-.03,276.19v-57.28Z"/>
              <path class="cls-11" d="m55.89,0c-14.33,20.09-35.22,8.11-35.22,8.11C16.47,28.87-.03,22.93-.03,22.93V0h55.91Z"/>
              <path class="cls-11" d="m190.39,0c20.05,25.72,50.48,19.87,62.7,5.17,7.52,57.59,56.91,33.54,56.91,33.54V0h-119.62Z"/>
              <g>
                <g>
                  <polygon class="cls-18" points="96.28 270.45 115.96 286.05 97.99 285.41 96.28 270.45"/>
                  <polygon class="cls-18" points="66.02 256.86 79.54 276.01 64.38 280.87 66.02 256.86"/>
                  <polygon class="cls-18" points="43.41 243.19 50.36 258.61 33.72 265.72 43.41 243.19"/>
                  <polygon class="cls-18" points="19.59 229.09 24.96 242.78 10.18 245.87 19.59 229.09"/>
                </g>
                <path class="cls-34" d="m1.44,228.18c20.26-9.58,20.94,5.15,17.86,13.79,25.14-13.03,29.22,6.18,21.65,16.08,28.48-15.91,30.09,8.78,26.65,14.18,29.71-15.28,38.66,7.83,30.39,13.18C39.95,289.4.22,258.56,1.44,228.18Z"/>
                <ellipse class="cls-29" cx="91.41" cy="276.19" rx="4.58" ry="3.42" transform="translate(-85.14 44.96) rotate(-19.05)"/>
                <ellipse class="cls-29" cx="61.95" cy="266.54" rx="3.9" ry="5.22" transform="translate(-9.7 2.44) rotate(-2.1)"/>
                <ellipse class="cls-29" cx="36.27" cy="252.29" rx="4.82" ry="3.6" transform="translate(-217.73 231.15) rotate(-77.06)"/>
                <ellipse class="cls-29" cx="15.5" cy="236.09" rx="3.76" ry="2.81" transform="translate(-221.08 239.16) rotate(-86.99)"/>
              </g>
              <g>
                <polygon class="cls-18" points="250.13 247.6 224.9 275.41 245.67 275.41 250.13 247.6"/>
                <polygon class="cls-18" points="276.16 229.98 255.87 249.68 269.36 258.38 276.16 229.98"/>
                <polygon class="cls-18" points="296.85 224.74 282.68 235.39 290.47 245.08 296.85 224.74"/>
                <path class="cls-34" d="m245.81,269.55c-1.86-30.51,15.45-29.19,21.37-17.57,6.58-34.2,19.73-24.33,21.48-14.47,8.11-23.89,21.35-11.4,21.35-3.07v12.16s-42.61,31.97-64.2,22.95Z"/>
                <ellipse class="cls-29" cx="276.23" cy="242.66" rx="4.78" ry="2.84" transform="translate(-32.49 442.34) rotate(-74.19)"/>
                <ellipse class="cls-29" cx="296.6" cy="233.89" rx="4.17" ry="3.05" transform="translate(-70.55 322.65) rotate(-51.85)"/>
                <ellipse class="cls-29" cx="253.01" cy="258.95" rx="5.54" ry="3.4" transform="translate(-67.86 426.62) rotate(-73.25)"/>
              </g>
              <path class="cls-33" d="m310.01,239.05c-22.2-12.44-37.63,31.57-75.23,29.26-43.48-2.67-54.06-8.19-105.39,10.24-38.71,13.9-97.6,0-129.41-53.4v84.92h310.03v-71.02Z"/>
              <path class="cls-24" d="m310.01,269.88c-64.51,0-100.25,40.2-100.25,40.2h100.25v-40.2Z"/>
              <g>
                <path class="cls-34" d="m276.34,260.76c-11.61,5.77,7.13,12.38,20.83,3.03,13.7-9.35,1.02-11.85-7.1-9.13-8.12,2.71-2.13.34-13.73,6.11Z"/>
                <path class="cls-18" d="m290.73,263.71c2.13,4.43,9.74,2.47,7.39-3.44l-7.39,3.44Z"/>
                <path class="cls-27" d="m299.19,259.54c-.71.52-1.49,1.02-2.34,1.5-1.78,1.01-3.85,1.92-6.12,2.67-.67.22-1.34.42-2,.59h-.01c-.78.22-1.54.39-2.3.54-6.39,1.25-11.74.38-12.82-2.39-.83-2.15,1.15-4.94,4.84-7.36.62-.42,1.29-.82,2-1.2,1.65-.89,3.54-1.69,5.58-2.37,1.02-.33,2.04-.62,3.04-.85,1.61-.38,3.17-.62,4.63-.74,4.84-.41,8.6.59,9.47,2.85.76,1.98-.84,4.49-3.96,6.76Z"/>
                <g>
                  <path class="cls-18" d="m288.72,264.3h-.01c-.78.22-1.54.39-2.3.54,1.56-4-.75-7.19-4.6-8.69-1.08-.46-2.24-.82-3.38-1.05.62-.42,1.29-.82,2-1.2,3.83,1.01,7.68,3.17,8.38,7.33.18,1.05.11,2.08-.09,3.08Z"/>
                  <path class="cls-18" d="m296.85,261.04c.15-2.85-.27-5.88-2.26-8-1.33-1.44-3.48-2.33-5.53-2.37,1.61-.38,3.17-.62,4.63-.74.85.43,1.65.99,2.36,1.66,2.14,2.1,2.98,5.03,3.15,7.94-.71.52-1.49,1.02-2.34,1.5Z"/>
                </g>
              </g>
              <g>
                <path class="cls-34" d="m19.74,16.24c-3.1-5.43-6.26-10.78-5.72-16.24h11.18c.89,5.75-1.81,10.16-5.46,16.24Z"/>
                <path class="cls-15" d="m25.19,32.59c-1.41,14.53-20.84,21.68-14.59,2.69,2.77-8.39,6.25-14.25,9.14-19.05,3.01,5.3,6,10.69,5.44,16.36Z"/>
                <path class="cls-34" d="m28.71,0c-2.55,20.18,10.99,31.76,16.29,28.23C51.86,23.66,25.57,16.65,33.42,0h-4.71Z"/>
              </g>
              <g>
                <path class="cls-26" d="m65.18,310.07H-.03v-48.17c9.36-8.43,21.86-9.39,31.25-4.86,9.92,4.78,16.4,15.66,12.11,30.29,8.56-5.29,15.89-6.45,21.42-5.17,13.43,3.1,16.25,20.55.44,27.9Z"/>
                <path class="cls-11" d="m64.74,282.17c-17.52,15.8-43.99,11.23-33.53-25.12,9.92,4.78,16.4,15.66,12.11,30.29,8.56-5.29,15.89-6.45,21.42-5.17Z"/>
                <path class="cls-34" d="m25.98,267.75c-1.26,1.94-3.92,3.56-7.18,4.12-4.06.72-7.77-.41-9.22-2.59-.31-.46-.53-.95-.62-1.5-.52-3.13,3.05-6.37,7.95-7.24,4.92-.86,9.32.96,9.84,4.1.18,1.06-.11,2.12-.77,3.11Z"/>
                <path class="cls-29" d="m25.98,267.75c-1.26,1.94-3.92,3.56-7.18,4.12-4.06.72-7.77-.41-9.22-2.59-.01-.16-.01-.34.01-.5.3-3.2,4.34-5.47,9.02-5.08,3.42.28,6.24,1.92,7.37,4.04Z"/>
                <ellipse class="cls-34" cx="31.42" cy="277.8" rx="3.99" ry="4.11"/>
                <g>
                  <path class="cls-34" d="m26.68,300.19c-2.31,4.16-8.18,5.17-13.12,2.27-4.23-2.48-6.4-7.03-5.49-10.91.16-.65.39-1.28.72-1.88,2.3-4.16,8.18-5.17,13.12-2.27,2.87,1.69,4.8,4.35,5.43,7.09.48,1.96.29,3.96-.67,5.7Z"/>
                  <path class="cls-29" d="m27.35,294.49c-.08.28-.19.56-.31.82-1.99,4.32-7.77,5.76-12.91,3.24-3.12-1.54-5.29-4.18-6.05-7,.16-.65.39-1.28.72-1.88,2.3-4.16,8.18-5.17,13.12-2.27,2.87,1.69,4.8,4.35,5.43,7.09Z"/>
                </g>
                <ellipse class="cls-34" cx="46" cy="298.57" rx="6.12" ry="5.13" transform="translate(-77.85 23.03) rotate(-15.45)"/>
                <ellipse class="cls-29" cx="66.84" cy="294.25" rx="4.34" ry="5.31" transform="translate(-28.54 7.97) rotate(-5.63)"/>
              </g>
              <g>
                <g>
                  <path class="cls-34" d="m310.01,57.31c-8.33,4.61-16.51,2.02-25.08-.7-1.06-.34-2.12-.67-3.19-1-8.53-2.59-17.21-4.25-25.27,3.11-1.31,1.2-1.52,3.38-.45,4.86,1.06,1.49,3,1.71,4.31.51,5.37-4.91,11.39-4.22,18.17-2.28,1.54.43,3.13.94,4.75,1.45,8.26,2.62,17.33,5.5,26.74,1.59v-7.55Z"/>
                  <path class="cls-15" d="m281.74,55.61c-8.53-2.59-17.21-4.25-25.27,3.11-1.31,1.2-1.52,3.38-.45,4.86,1.06,1.49,3,1.71,4.31.51,5.37-4.91,11.39-4.22,18.17-2.28,2.03-2.35,2.89-4.52,3.23-6.2Z"/>
                </g>
                <g>
                  <path class="cls-15" d="m310.01,68.24c-4.06,4.85-9.05,6.65-13.61,7.05-6.75.58-12.55-1.89-12.99-2.07-1.6-.7-3.42.16-4.06,1.93-.64,1.77.13,3.77,1.73,4.48,3.64,1.62,9.08,2.96,14.91,2.61,4.68-.29,9.6-1.7,14.02-4.95v-9.04Z"/>
                  <path class="cls-34" d="m296.4,75.29c-6.75.58-12.55-1.89-12.99-2.07-1.6-.7-3.42.16-4.06,1.93-.64,1.77.13,3.77,1.73,4.48,3.64,1.62,9.08,2.96,14.9,2.61.84-2.56.78-4.98.41-6.94Z"/>
                </g>
                <g>
                  <path class="cls-34" d="m310.01,45.79c-6.14,2.19-11.8,1.55-17.23-.01-2.75-.79-5.45-1.83-8.11-2.84-4.55-1.75-9.17-3.52-13.9-3.99-.79-.08-1.58-.12-2.37-.12-3.16,0-6.36.67-9.62,2.38-1.51.8-2.17,2.84-1.48,4.58.69,1.74,2.47,2.5,3.96,1.71,3.16-1.66,6.3-2.01,9.54-1.6,3.8.46,7.74,1.97,11.99,3.6,2.95,1.13,6.01,2.3,9.24,3.19,5.52,1.52,11.47,2.18,17.98.29v-7.18Z"/>
                  <path class="cls-15" d="m292.78,45.78c-2.75-.79-5.45-1.83-8.11-2.84-4.55-1.75-9.17-3.52-13.9-3.99-.41,2.09-.51,4.47.03,6.95,3.8.46,7.74,1.97,11.99,3.6,2.95,1.13,6.01,2.3,9.24,3.19-.44-1.85-.43-4.19.75-6.9Z"/>
                </g>
                <g>
                  <path class="cls-15" d="m310.01,37.13c-14.38,1.12-23.03-4.62-27.92-10.09-3.9-4.39-5.42-8.58-5.55-8.98-.47-1.38-1.67-2.24-2.93-2.24-.37,0-.73.08-1.09.23-1.62.67-2.44,2.65-1.84,4.42.04.13,2.22,6.36,8.04,12.41,6,6.24,15.88,12.26,31.29,11.19v-6.94Z"/>
                  <path class="cls-34" d="m282.08,27.04c-3.9-4.39-5.42-8.58-5.55-8.98-.47-1.38-1.67-2.24-2.93-2.24-.37,0-.73.08-1.09.23-1.62.67-2.44,2.65-1.84,4.42.04.13,2.22,6.36,8.04,12.41.59-2.81,2-4.66,3.37-5.84Z"/>
                </g>
                <g>
                  <path class="cls-34" d="m310.01,27.64c-4.43,1.23-7.92.86-10.36-1.12-4.54-3.67-4.67-11.98-4.67-12.06,0-1.81-1.33-3.28-2.97-3.28h0c-1.64,0-2.96,1.47-2.96,3.28,0,.39.06,8.09,4.03,13.96.83,1.25,1.85,2.41,3.08,3.4,3.63,2.94,8.28,3.78,13.87,2.55v-6.72Z"/>
                  <path class="cls-15" d="m299.64,26.52c-4.54-3.67-4.67-11.98-4.67-12.06,0-1.81-1.33-3.28-2.97-3.28h0c-1.64,0-2.96,1.47-2.96,3.28,0,.39.06,8.09,4.03,13.96,4.75.87,6.58-1.89,6.58-1.89Z"/>
                </g>
              </g>
              <ellipse class="cls-33" cx="276.57" cy="280.36" rx="2.44" ry="1.99" transform="translate(-105.19 183.67) rotate(-31.18)"/>
              <circle class="cls-33" cx="303.44" cy="285.27" r="1.97"/>
              <circle class="cls-34" cx="255.96" cy="274.49" r="2.04"/>
              <ellipse class="cls-34" cx="301.72" cy="243.72" rx="2.11" ry="1.72" transform="translate(-31.15 44.64) rotate(-8.05)"/>
              <circle class="cls-34" cx="231.64" cy="273.55" r="1.59"/>
              <ellipse class="cls-34" cx="50.36" cy="278.25" rx="2.21" ry="2.7" transform="translate(-160.62 89.98) rotate(-38)"/>
              <circle class="cls-34" cx="5.83" cy="246.09" r="2.15"/>
              <g class="cls-38">
                <g>
                  <path class="cls-33" d="m-2.3,186.61c11.45-28.9,26.4-13.23,5.38-2.05,43.96-2.97,21.96,28.66-5.38,2.05Z"/>
                  <g>
                    <path class="cls-3" d="m297.87,311.25c-12.27-18.45,10.63-24.75,7.72-6.71"/>
                    <path class="cls-3" d="m291.78,311.25c-10.93-10.06,0-17.46,0-17.46-7.22-10.85,5.26-12.11,5.26-12.11l-2.81-6.08"/>
                    <path class="cls-3" d="m281.06,311.25c5.86-18.55-5.95-26.94-8.35-14.89h-4.98"/>
                  </g>
                  <g>
                    <path class="cls-34" d="m310.98,199.99c2.75-.9,3.69-14.81-6.95-32.23-.5-.82-.98-1.59-1.45-2.32,2.06,19.09,6.01,35.34,8.41,34.56Z"/>
                    <path class="cls-33" d="m273.86,129.68c15.26,22.08,19.85,22.01,28.71,35.75-.29-2.71-.7-5.5-1.27-8.31-4.6-22.63-6.94-33.39-20.83-47.04-13.89-13.65-20.55-.57-6.61,19.6Z"/>
                  </g>
                  <g>
                    <path class="cls-2" d="m-3.05,94.49c39.51,7.94,29.17-28.05,13.65-10.49"/>
                    <path class="cls-3" d="m-2.06,99.42c17.72,13.83,22.76-14.15,40.83,6.43"/>
                    <path class="cls-3" d="m-2.06,113.7c18.64,3.48,28.1,12.45,26.28,19.29-1.82,6.85-15.26,3.15-16.38-8.46s7.84-16.02,19.54-17.35"/>
                  </g>
                </g>
              </g>
            </g>
            <g>
              <g>
                <path class="cls-34" d="m74.37,15.02l19.43-2.96c-6.92-13.89-22-7.74-19.43,2.96Z"/>
                <path class="cls-34" d="m74.38,31.84c-1.12,6.97,5,7.09,7.32,3.96l-7.32-3.96Z"/>
                <path class="cls-34" d="m71.16,23.31c0,2.22-6,9.63-9.18,7.45-3.18-2.18-2.98-14,0-15.5,2.98-1.5,9.18,5.83,9.18,8.06Z"/>
                <ellipse class="cls-33" cx="85.19" cy="22.89" rx="14.19" ry="13.04" transform="translate(-2.79 29.32) rotate(-19.22)"/>
                <ellipse class="cls-30" cx="92.53" cy="22.02" rx="2.72" ry="2.5" transform="translate(42.06 102.64) rotate(-71.34)"/>
                <ellipse class="cls-19" cx="77.94" cy="22.39" rx="3.47" ry="3.78" transform="translate(33.96 90.52) rotate(-73.18)"/>
                <g class="cls-37">
                  <path class="cls-5" d="m86.87,8.14c-6.75,11.82-1.68,28.71-1.68,28.71"/>
                </g>
              </g>
              <ellipse class="cls-11" cx="103.25" cy="10.96" rx="3.75" ry="4.08" transform="translate(22.45 76.16) rotate(-44.96)"/>
            </g>
            <g>
              <ellipse class="cls-11" cx="199.65" cy="19.36" rx="3.64" ry="3.96" transform="translate(100.79 193.89) rotate(-66.01)"/>
              <g>
                <ellipse class="cls-19" cx="217.95" cy="27.65" rx="10.36" ry="12.47" transform="translate(157.11 238.76) rotate(-81.15)"/>
                <path class="cls-32" d="m224.34,19.04h-13.94c7.64-12.1,16.17-5.03,13.94,0Z"/>
                <path class="cls-32" d="m230.05,27.64c0-3.81,4-8.39,6.48-6.36s2.72,10.03.64,12.52c-2.08,2.49-7.12-2.34-7.12-6.15Z"/>
                <g>
                  <ellipse class="cls-15" cx="217.95" cy="27.65" rx="10.36" ry="12.47" transform="translate(157.11 238.76) rotate(-81.15)"/>
                  <g class="cls-43">
                    <line class="cls-4" x1="217.96" y1="16.48" x2="220.11" y2="38.79"/>
                  </g>
                </g>
                <path class="cls-32" d="m224.93,28.98c1.88-.58,2.49-2.77,1.09-3.93-1.39-1.17-3.82,0-4.31,1.75-.49,1.75,1.33,2.77,3.21,2.19Z"/>
                <ellipse class="cls-30" cx="213.3" cy="26.37" rx="1.93" ry="2.33" transform="translate(6.11 83.51) rotate(-22.47)"/>
              </g>
            </g>
          </g>
          <g>
            <g>
              <rect class="cls-1" x="-.03" y="0" width="310.03" height="310.07"/>
              <path class="cls-1" d="m310.01,219.62c-23.08-21.66-45.09-11.68-36.21,15.1-26.07-11.07-36.66,10.24-30.54,25.55-27.54-25.37-57.67,10.88-57.67,10.88,92.25,13.2,124.42-1.28,124.42-1.28v-50.25Z"/>
              <path class="cls-1" d="m-.03,218.91c27.63-11.63,46.82,7.6,42.43,29.75,27.67-7.63,50.17,11.82,50.12,30.77,19.15-25.06,46.92,1.44,46.92,1.44C86.93,295.66-.03,276.19-.03,276.19v-57.28Z"/>
              <path class="cls-1" d="m55.89,0c-14.33,20.09-35.22,8.11-35.22,8.11C16.47,28.87-.03,22.93-.03,22.93V0h55.91Z"/>
              <path class="cls-1" d="m190.39,0c20.05,25.72,50.48,19.87,62.7,5.17,7.52,57.59,56.91,33.54,56.91,33.54V0h-119.62Z"/>
              <g>
                <g>
                  <polygon class="cls-1" points="96.28 270.45 115.96 286.05 97.99 285.41 96.28 270.45"/>
                  <polygon class="cls-1" points="66.02 256.86 79.54 276.01 64.38 280.87 66.02 256.86"/>
                  <polygon class="cls-1" points="43.41 243.19 50.36 258.61 33.72 265.72 43.41 243.19"/>
                  <polygon class="cls-1" points="19.59 229.09 24.96 242.78 10.18 245.87 19.59 229.09"/>
                </g>
                <path class="cls-1" d="m1.44,228.18c20.26-9.58,20.94,5.15,17.86,13.79,25.14-13.03,29.22,6.18,21.65,16.08,28.48-15.91,30.09,8.78,26.65,14.18,29.71-15.28,38.66,7.83,30.39,13.18C39.95,289.4.22,258.56,1.44,228.18Z"/>
                <ellipse class="cls-1" cx="91.41" cy="276.19" rx="4.58" ry="3.42" transform="translate(-85.14 44.96) rotate(-19.05)"/>
                <ellipse class="cls-1" cx="61.95" cy="266.54" rx="3.9" ry="5.22" transform="translate(-9.7 2.44) rotate(-2.1)"/>
                <ellipse class="cls-1" cx="36.27" cy="252.29" rx="4.82" ry="3.6" transform="translate(-217.73 231.15) rotate(-77.06)"/>
                <ellipse class="cls-1" cx="15.5" cy="236.09" rx="3.76" ry="2.81" transform="translate(-221.08 239.16) rotate(-86.99)"/>
              </g>
              <g>
                <polygon class="cls-1" points="250.13 247.6 224.9 275.41 245.67 275.41 250.13 247.6"/>
                <polygon class="cls-1" points="276.16 229.98 255.87 249.68 269.36 258.38 276.16 229.98"/>
                <polygon class="cls-1" points="296.85 224.74 282.68 235.39 290.47 245.08 296.85 224.74"/>
                <path class="cls-1" d="m245.81,269.55c-1.86-30.51,15.45-29.19,21.37-17.57,6.58-34.2,19.73-24.33,21.48-14.47,8.11-23.89,21.35-11.4,21.35-3.07v12.16s-42.61,31.97-64.2,22.95Z"/>
                <ellipse class="cls-1" cx="276.23" cy="242.66" rx="4.78" ry="2.84" transform="translate(-32.49 442.34) rotate(-74.19)"/>
                <ellipse class="cls-1" cx="296.6" cy="233.89" rx="4.17" ry="3.05" transform="translate(-70.55 322.65) rotate(-51.85)"/>
                <ellipse class="cls-1" cx="253.01" cy="258.95" rx="5.54" ry="3.4" transform="translate(-67.86 426.62) rotate(-73.25)"/>
              </g>
              <path class="cls-1" d="m310.01,239.05c-22.2-12.44-37.63,31.57-75.23,29.26-43.48-2.67-54.06-8.19-105.39,10.24-38.71,13.9-97.6,0-129.41-53.4v84.92h310.03v-71.02Z"/>
              <path class="cls-1" d="m310.01,269.88c-64.51,0-100.25,40.2-100.25,40.2h100.25v-40.2Z"/>
              <g>
                <path class="cls-1" d="m276.34,260.76c-11.61,5.77,7.13,12.38,20.83,3.03,13.7-9.35,1.02-11.85-7.1-9.13-8.12,2.71-2.13.34-13.73,6.11Z"/>
                <path class="cls-1" d="m290.73,263.71c2.13,4.43,9.74,2.47,7.39-3.44l-7.39,3.44Z"/>
                <path class="cls-1" d="m299.19,259.54c-.71.52-1.49,1.02-2.34,1.5-1.78,1.01-3.85,1.92-6.12,2.67-.67.22-1.34.42-2,.59h-.01c-.78.22-1.54.39-2.3.54-6.39,1.25-11.74.38-12.82-2.39-.83-2.15,1.15-4.94,4.84-7.36.62-.42,1.29-.82,2-1.2,1.65-.89,3.54-1.69,5.58-2.37,1.02-.33,2.04-.62,3.04-.85,1.61-.38,3.17-.62,4.63-.74,4.84-.41,8.6.59,9.47,2.85.76,1.98-.84,4.49-3.96,6.76Z"/>
                <g>
                  <path class="cls-1" d="m288.72,264.3h-.01c-.78.22-1.54.39-2.3.54,1.56-4-.75-7.19-4.6-8.69-1.08-.46-2.24-.82-3.38-1.05.62-.42,1.29-.82,2-1.2,3.83,1.01,7.68,3.17,8.38,7.33.18,1.05.11,2.08-.09,3.08Z"/>
                  <path class="cls-1" d="m296.85,261.04c.15-2.85-.27-5.88-2.26-8-1.33-1.44-3.48-2.33-5.53-2.37,1.61-.38,3.17-.62,4.63-.74.85.43,1.65.99,2.36,1.66,2.14,2.1,2.98,5.03,3.15,7.94-.71.52-1.49,1.02-2.34,1.5Z"/>
                </g>
              </g>
              <g>
                <path class="cls-1" d="m19.74,16.24c-3.1-5.43-6.26-10.78-5.72-16.24h11.18c.89,5.75-1.81,10.16-5.46,16.24Z"/>
                <path class="cls-1" d="m25.19,32.59c-1.41,14.53-20.84,21.68-14.59,2.69,2.77-8.39,6.25-14.25,9.14-19.05,3.01,5.3,6,10.69,5.44,16.36Z"/>
                <path class="cls-1" d="m28.71,0c-2.55,20.18,10.99,31.76,16.29,28.23C51.86,23.66,25.57,16.65,33.42,0h-4.71Z"/>
              </g>
              <g>
                <path class="cls-1" d="m65.18,310.07H-.03v-48.17c9.36-8.43,21.86-9.39,31.25-4.86,9.92,4.78,16.4,15.66,12.11,30.29,8.56-5.29,15.89-6.45,21.42-5.17,13.43,3.1,16.25,20.55.44,27.9Z"/>
                <path class="cls-1" d="m64.74,282.17c-17.52,15.8-43.99,11.23-33.53-25.12,9.92,4.78,16.4,15.66,12.11,30.29,8.56-5.29,15.89-6.45,21.42-5.17Z"/>
                <path class="cls-1" d="m25.98,267.75c-1.26,1.94-3.92,3.56-7.18,4.12-4.06.72-7.77-.41-9.22-2.59-.31-.46-.53-.95-.62-1.5-.52-3.13,3.05-6.37,7.95-7.24,4.92-.86,9.32.96,9.84,4.1.18,1.06-.11,2.12-.77,3.11Z"/>
                <path class="cls-1" d="m25.98,267.75c-1.26,1.94-3.92,3.56-7.18,4.12-4.06.72-7.77-.41-9.22-2.59-.01-.16-.01-.34.01-.5.3-3.2,4.34-5.47,9.02-5.08,3.42.28,6.24,1.92,7.37,4.04Z"/>
                <ellipse class="cls-1" cx="31.42" cy="277.8" rx="3.99" ry="4.11"/>
                <g>
                  <path class="cls-1" d="m26.68,300.19c-2.31,4.16-8.18,5.17-13.12,2.27-4.23-2.48-6.4-7.03-5.49-10.91.16-.65.39-1.28.72-1.88,2.3-4.16,8.18-5.17,13.12-2.27,2.87,1.69,4.8,4.35,5.43,7.09.48,1.96.29,3.96-.67,5.7Z"/>
                  <path class="cls-1" d="m27.35,294.49c-.08.28-.19.56-.31.82-1.99,4.32-7.77,5.76-12.91,3.24-3.12-1.54-5.29-4.18-6.05-7,.16-.65.39-1.28.72-1.88,2.3-4.16,8.18-5.17,13.12-2.27,2.87,1.69,4.8,4.35,5.43,7.09Z"/>
                </g>
                <ellipse class="cls-1" cx="46" cy="298.57" rx="6.12" ry="5.13" transform="translate(-77.85 23.03) rotate(-15.45)"/>
                <ellipse class="cls-1" cx="66.84" cy="294.25" rx="4.34" ry="5.31" transform="translate(-28.54 7.97) rotate(-5.63)"/>
              </g>
              <g>
                <g>
                  <path class="cls-1" d="m310.01,57.31c-8.33,4.61-16.51,2.02-25.08-.7-1.06-.34-2.12-.67-3.19-1-8.53-2.59-17.21-4.25-25.27,3.11-1.31,1.2-1.52,3.38-.45,4.86,1.06,1.49,3,1.71,4.31.51,5.37-4.91,11.39-4.22,18.17-2.28,1.54.43,3.13.94,4.75,1.45,8.26,2.62,17.33,5.5,26.74,1.59v-7.55Z"/>
                  <path class="cls-1" d="m281.74,55.61c-8.53-2.59-17.21-4.25-25.27,3.11-1.31,1.2-1.52,3.38-.45,4.86,1.06,1.49,3,1.71,4.31.51,5.37-4.91,11.39-4.22,18.17-2.28,2.03-2.35,2.89-4.52,3.23-6.2Z"/>
                </g>
                <g>
                  <path class="cls-1" d="m310.01,68.24c-4.06,4.85-9.05,6.65-13.61,7.05-6.75.58-12.55-1.89-12.99-2.07-1.6-.7-3.42.16-4.06,1.93-.64,1.77.13,3.77,1.73,4.48,3.64,1.62,9.08,2.96,14.91,2.61,4.68-.29,9.6-1.7,14.02-4.95v-9.04Z"/>
                  <path class="cls-1" d="m296.4,75.29c-6.75.58-12.55-1.89-12.99-2.07-1.6-.7-3.42.16-4.06,1.93-.64,1.77.13,3.77,1.73,4.48,3.64,1.62,9.08,2.96,14.9,2.61.84-2.56.78-4.98.41-6.94Z"/>
                </g>
                <g>
                  <path class="cls-1" d="m310.01,45.79c-6.14,2.19-11.8,1.55-17.23-.01-2.75-.79-5.45-1.83-8.11-2.84-4.55-1.75-9.17-3.52-13.9-3.99-.79-.08-1.58-.12-2.37-.12-3.16,0-6.36.67-9.62,2.38-1.51.8-2.17,2.84-1.48,4.58.69,1.74,2.47,2.5,3.96,1.71,3.16-1.66,6.3-2.01,9.54-1.6,3.8.46,7.74,1.97,11.99,3.6,2.95,1.13,6.01,2.3,9.24,3.19,5.52,1.52,11.47,2.18,17.98.29v-7.18Z"/>
                  <path class="cls-1" d="m292.78,45.78c-2.75-.79-5.45-1.83-8.11-2.84-4.55-1.75-9.17-3.52-13.9-3.99-.41,2.09-.51,4.47.03,6.95,3.8.46,7.74,1.97,11.99,3.6,2.95,1.13,6.01,2.3,9.24,3.19-.44-1.85-.43-4.19.75-6.9Z"/>
                </g>
                <g>
                  <path class="cls-1" d="m310.01,37.13c-14.38,1.12-23.03-4.62-27.92-10.09-3.9-4.39-5.42-8.58-5.55-8.98-.47-1.38-1.67-2.24-2.93-2.24-.37,0-.73.08-1.09.23-1.62.67-2.44,2.65-1.84,4.42.04.13,2.22,6.36,8.04,12.41,6,6.24,15.88,12.26,31.29,11.19v-6.94Z"/>
                  <path class="cls-1" d="m282.08,27.04c-3.9-4.39-5.42-8.58-5.55-8.98-.47-1.38-1.67-2.24-2.93-2.24-.37,0-.73.08-1.09.23-1.62.67-2.44,2.65-1.84,4.42.04.13,2.22,6.36,8.04,12.41.59-2.81,2-4.66,3.37-5.84Z"/>
                </g>
                <g>
                  <path class="cls-1" d="m310.01,27.64c-4.43,1.23-7.92.86-10.36-1.12-4.54-3.67-4.67-11.98-4.67-12.06,0-1.81-1.33-3.28-2.97-3.28h0c-1.64,0-2.96,1.47-2.96,3.28,0,.39.06,8.09,4.03,13.96.83,1.25,1.85,2.41,3.08,3.4,3.63,2.94,8.28,3.78,13.87,2.55v-6.72Z"/>
                  <path class="cls-1" d="m299.64,26.52c-4.54-3.67-4.67-11.98-4.67-12.06,0-1.81-1.33-3.28-2.97-3.28h0c-1.64,0-2.96,1.47-2.96,3.28,0,.39.06,8.09,4.03,13.96,4.75.87,6.58-1.89,6.58-1.89Z"/>
                </g>
              </g>
              <ellipse class="cls-1" cx="276.57" cy="280.36" rx="2.44" ry="1.99" transform="translate(-105.19 183.67) rotate(-31.18)"/>
              <circle class="cls-1" cx="303.44" cy="285.27" r="1.97"/>
              <circle class="cls-1" cx="255.96" cy="274.49" r="2.04"/>
              <ellipse class="cls-1" cx="301.72" cy="243.72" rx="2.11" ry="1.72" transform="translate(-31.15 44.64) rotate(-8.05)"/>
              <circle class="cls-1" cx="231.64" cy="273.55" r="1.59"/>
              <ellipse class="cls-1" cx="50.36" cy="278.25" rx="2.21" ry="2.7" transform="translate(-160.62 89.98) rotate(-38)"/>
              <circle class="cls-1" cx="5.83" cy="246.09" r="2.15"/>
              <g class="cls-42">
                <g>
                  <path class="cls-1" d="m-2.3,186.61c11.45-28.9,26.4-13.23,5.38-2.05,43.96-2.97,21.96,28.66-5.38,2.05Z"/>
                  <g>
                    <path class="cls-1" d="m297.87,311.25c-12.27-18.45,10.63-24.75,7.72-6.71"/>
                    <path class="cls-1" d="m291.78,311.25c-10.93-10.06,0-17.46,0-17.46-7.22-10.85,5.26-12.11,5.26-12.11l-2.81-6.08"/>
                    <path class="cls-1" d="m281.06,311.25c5.86-18.55-5.95-26.94-8.35-14.89h-4.98"/>
                  </g>
                  <g>
                    <path class="cls-1" d="m310.98,199.99c2.75-.9,3.69-14.81-6.95-32.23-.5-.82-.98-1.59-1.45-2.32,2.06,19.09,6.01,35.34,8.41,34.56Z"/>
                    <path class="cls-1" d="m273.86,129.68c15.26,22.08,19.85,22.01,28.71,35.75-.29-2.71-.7-5.5-1.27-8.31-4.6-22.63-6.94-33.39-20.83-47.04-13.89-13.65-20.55-.57-6.61,19.6Z"/>
                  </g>
                  <g>
                    <path class="cls-1" d="m-3.05,94.49c39.51,7.94,29.17-28.05,13.65-10.49"/>
                    <path class="cls-1" d="m-2.06,99.42c17.72,13.83,22.76-14.15,40.83,6.43"/>
                    <path class="cls-1" d="m-2.06,113.7c18.64,3.48,28.1,12.45,26.28,19.29-1.82,6.85-15.26,3.15-16.38-8.46s7.84-16.02,19.54-17.35"/>
                  </g>
                </g>
              </g>
            </g>
            <g>
              <g>
                <path class="cls-1" d="m74.37,15.02l19.43-2.96c-6.92-13.89-22-7.74-19.43,2.96Z"/>
                <path class="cls-1" d="m74.38,31.84c-1.12,6.97,5,7.09,7.32,3.96l-7.32-3.96Z"/>
                <path class="cls-1" d="m71.16,23.31c0,2.22-6,9.63-9.18,7.45-3.18-2.18-2.98-14,0-15.5,2.98-1.5,9.18,5.83,9.18,8.06Z"/>
                <ellipse class="cls-1" cx="85.19" cy="22.89" rx="14.19" ry="13.04" transform="translate(-2.79 29.32) rotate(-19.22)"/>
                <ellipse class="cls-1" cx="92.53" cy="22.02" rx="2.72" ry="2.5" transform="translate(42.06 102.64) rotate(-71.34)"/>
                <ellipse class="cls-1" cx="77.94" cy="22.39" rx="3.47" ry="3.78" transform="translate(33.96 90.52) rotate(-73.18)"/>
                <g class="cls-40">
                  <path class="cls-1" d="m86.87,8.14c-6.75,11.82-1.68,28.71-1.68,28.71"/>
                </g>
              </g>
              <ellipse class="cls-1" cx="103.25" cy="10.96" rx="3.75" ry="4.08" transform="translate(22.45 76.16) rotate(-44.96)"/>
            </g>
            <g>
              <ellipse class="cls-1" cx="199.65" cy="19.36" rx="3.64" ry="3.96" transform="translate(100.79 193.89) rotate(-66.01)"/>
              <g>
                <ellipse class="cls-1" cx="217.95" cy="27.65" rx="10.36" ry="12.47" transform="translate(157.11 238.76) rotate(-81.15)"/>
                <path class="cls-1" d="m224.34,19.04h-13.94c7.64-12.1,16.17-5.03,13.94,0Z"/>
                <path class="cls-1" d="m230.05,27.64c0-3.81,4-8.39,6.48-6.36s2.72,10.03.64,12.52c-2.08,2.49-7.12-2.34-7.12-6.15Z"/>
                <g class="cls-41">
                  <line class="cls-1" x1="217.96" y1="16.48" x2="220.11" y2="38.79"/>
                </g>
                <path class="cls-1" d="m224.93,28.98c1.88-.58,2.49-2.77,1.09-3.93-1.39-1.17-3.82,0-4.31,1.75-.49,1.75,1.33,2.77,3.21,2.19Z"/>
                <ellipse class="cls-1" cx="213.3" cy="26.37" rx="1.93" ry="2.33" transform="translate(6.11 83.51) rotate(-22.47)"/>
              </g>
            </g>
          </g>
        </g>
      </g>
    </mask>
    <clipPath id="clippath-9">
      <path class="cls-1" d="m175.43,214.24c0,2.65-7.33,11.67-22.13,11.67s-20.5-8.06-20.54-10.35c-.03-1.45,4.91.61,22.23.61,13,0,20.44-3.75,20.44-1.93Z"/>
    </clipPath>
  </defs>
  <g class="cls-45">
    <g id="Layer_1" data-name="Layer 1">
      <g>
        <rect class="cls-13" width="310" height="310"/>
        <g class="cls-7">
          <rect class="cls-35" width="310" height="310"/>
        </g>
      </g>
      <g>
        <path class="cls-20" d="m276.88,310H33.12c6.04-9.56,13.38-15.14,31.48-22.72,8.62-3.62,14.29-7.68,26.91-12.86h127.75c10.37,4.16,16.98,8.38,27.27,12.85,15.68,6.8,26.95,14.17,30.35,22.73Z"/>
        <path class="cls-16" d="m246.52,287.27h0c-67.23,27.17-141.42,18.76-181.91,0h0c8.62-3.62,14.29-7.68,26.91-12.86h127.75c10.37,4.16,16.98,8.38,27.27,12.85Z"/>
        <path class="cls-16" d="m207.62,76.01l-3.68-4.78c-.31-.4-.77-.64-1.28-.67l-32.05-1.57c-.61-.03-1.19.26-1.52.77l-2.85,4.34,41.39,1.9Z"/>
        <path class="cls-13" d="m209.53,250.88c-3.85,8.13-25.48,15-55.41,15s-48.59-7.07-52.51-12.8c-5.57-8.13-44.67-88.6-40.58-112.68,2.93-17.3,21.99-53.7,26.58-59.07,4.6-5.37,8.43-7.26,66.51-7.26s63.44,2.53,67.28,8.53c3.85,6,22.15,35.38,24.03,51.8,3.04,26.48-32.05,108.35-35.9,116.49Z"/>
        <path class="cls-25" d="m209.53,250.88c-3.85,8.13-25.48,15-55.41,15s-48.59-7.07-52.51-12.8c0-30.55,107.92-31.38,107.92-2.19Z"/>
        <path class="cls-25" d="m204.09,103.38c-20.05-19.2-85.22-17.13-101.33,0-8.79-13.93,9.56-25,9.56-25l93.25,1.34-1.48,23.66Z"/>
        <g>
          <rect class="cls-23" x="121.11" y="232.25" width="68.69" height="40.21"/>
          <path class="cls-9" d="m189.79,244.33v28.12h-68.69v-8.62s38.08,12.18,68.69-19.5Z"/>
        </g>
        <g>
          <g>
            <path class="cls-9" d="m218.94,183.66c-1.25,14.31-11.92,30.81-17.55,24.74l.23-3.04,2.59-34.82c5.55-4.06,9.55-4.62,12-2.28,2.49,2.36,3.4,7.7,2.73,15.41Z"/>
            <path class="cls-23" d="m218.94,183.66c-1.25,14.31-11.92,30.81-17.55,24.74l.23-3.04c3.79.08,12.96-6.35,4.75-12.06l9.84-25.05c2.49,2.36,3.4,7.7,2.73,15.41Z"/>
          </g>
          <path class="cls-23" d="m107.47,208.51c-6.7,6.58-15.09-5.96-19.34-23.87-2.1-8.87-.42-15.19,2.21-17.37,3.14-2.66,8.63-.64,13.4,5.75l3.32,31.62.41,3.87Z"/>
          <path class="cls-9" d="m107.07,204.64c-8.18,1.45-11.42-5.38-5.69-9.6l-11.03-27.76h0c3.14-2.67,8.63-.65,13.4,5.75l3.32,31.62Z"/>
          <path class="cls-9" d="m205.18,166.41c0,2.74-.02,5.44-.07,8.13-.48,27.33-5.31,51.92-22.85,68.22-18.86,17.54-38.54,18-57.87-4.73-16.21-19.06-22.16-38.82-22.88-62.16-.09-3-.13-6.06-.13-9.17,0-28.9,8.96-49.04,24.91-58.92,15.95-9.88,41.29-10.13,55.62-1.06,15.22,9.64,23.27,26.12,23.27,59.68Z"/>
          <path class="cls-21" d="m205.18,166.41c0,2.74-.02,5.44-.07,8.13-5.25-5.35-6.74-17.39-9.03-29.82-2.18-11.8-5.29-21.76-14.21-33.51-8.13,3.89-31.73,12.22-53.1-.28,0,0-15.47,17.74-17.1,27.4-1.63,9.66-.69,21.06-10.16,37.56-.09-3-.13-6.06-.13-9.17,0-28.9,8.96-49.04,24.91-58.92,15.95-9.88,41.29-10.13,55.62-1.06,15.22,9.64,23.27,26.12,23.27,59.68Z"/>
          <path class="cls-28" d="m159.53,235.54c-3.5-1.14-7.47-.93-10.73.77,0,0-1.64-2.25-1.64-2.25,3.83-2.98,9.26-3.38,13.48-1.07,0,0-1.11,2.55-1.11,2.55h0Z"/>
          <path class="cls-17" d="m190.48,163.25c-4.65-.77-8.15-3.28-12.62-2.62-3.19.14-16.06,5.4-15.63-1.19.1-.53.36-1,.71-1.36,1.95-1.97,4.25-2.91,6.71-3.66,5.03-1.43,11.92-1.52,16.39,1.74,2.29,1.56,4.12,3.27,5.42,5.66.39.68-.24,1.56-1,1.42h0Z"/>
          <path class="cls-17" d="m118.51,163.57c2.71-4.45,7.6-7.06,12.79-7.63,5.17-.39,10.24.2,14.05,3.88,1.02,1.07.97,2.76-.1,3.78-.37.35-.81.57-1.28.68-4.49.99-8.3-.94-12.39-1.22-1.9-.12-3.68.15-5.59.56-2,.43-4.02,1.24-6.56,1.41-.75.07-1.31-.81-.93-1.45h0Z"/>
          <path class="cls-23" d="m159.03,166.71l-2.17,3.42.3-1.19c1.23,7.51,2.5,15.22,5.59,22.2,0,0-.69-.7-.69-.7,3.68,1.95,6.79,6.4,4.15,10.57-3.3,5.03-9.77,6.12-15.27,5.33-6.49-.79-12.78-6.2-6.91-12.31,0,0,2.11,2.01,2.11,2.01-5.3,5.76,5.68,7.99,9.86,7.2,3.28-.37,9.3-3.03,7.3-7.04-.62-1.14-2.1-2.18-3.46-2.93,0,0-.23-.43-.23-.43-3.27-7.42-4.47-15.5-5.67-23.44,0,0-.06-.77-.06-.77.19-.25,2.74-3.17,3-3.5,0,0,2.14,1.58,2.14,1.58h0Z"/>
          <path class="cls-10" d="m175.43,214.24c0,2.65-7.33,11.67-22.13,11.67s-20.5-8.06-20.54-10.35c-.03-1.45,4.91.61,22.23.61,13,0,20.44-3.75,20.44-1.93Z"/>
          <g>
            <path class="cls-10" d="m185.94,174.85c-.18,1.69-4.38,4.25-10.59,4.31-6.22.06-9.67-2.65-9.67-3.85s4.78-5.77,11.23-5.77,9.22,3.61,9.04,5.3Z"/>
            <ellipse class="cls-31" cx="175.92" cy="173.75" rx="5.58" ry="5.39"/>
          </g>
          <g>
            <path class="cls-10" d="m122.92,174.85c.18,1.69,4.38,4.25,10.59,4.31,6.22.06,9.67-2.65,9.67-3.85,0-1.19-4.78-5.77-11.23-5.77-6.45,0-9.22,3.61-9.04,5.3Z"/>
            <ellipse class="cls-31" cx="132.94" cy="173.75" rx="5.58" ry="5.39"/>
          </g>
          <path class="cls-31" d="m185.37,174.85c-.61-1.64-2.44-2.4-4.02-2.97-4.48-1.59-9.23-.47-13.29,1.75-.8.47-1.57,1.02-1.93,1.72l-.91-.08c0-2.47,2.29-4.16,4.14-5.38,4.82-3.1,11.98-2.99,15.97,1.45.79.94,1.44,2.24,1.18,3.51,0,0-1.14,0-1.14,0h0Z"/>
          <path class="cls-31" d="m122.35,174.85c-.4-4.91,6.81-7.29,10.81-7.1,3.96.09,10.72,2.88,10.48,7.56,0,0-.91,0-.91,0-.28-.79-.97-1.38-1.73-1.88-2.33-1.47-5.24-2.19-7.94-2.29-2.92.04-8.21.72-9.56,3.7,0,0-1.14,0-1.14,0h0Z"/>
          <g class="cls-44">
            <path class="cls-14" d="m132.5,216.03c10.24,4.95,22.02,5.93,33.05,3.27,0,0,.67,1.57.67,1.57-10.21,5.17-23.14,3.82-32.63-2.3-.63-.4-1.25-.83-1.87-1.25l.78-1.29h0Z"/>
          </g>
          <ellipse class="cls-12" cx="120.15" cy="196.88" rx="9.82" ry="7.5" transform="translate(-62.01 55.4) rotate(-20.77)"/>
          <ellipse class="cls-12" cx="188.09" cy="196.25" rx="7.67" ry="9.84" transform="translate(-34.25 352.64) rotate(-81.34)"/>
        </g>
        <path class="cls-20" d="m245.43,134.39s-7.43-2.92-15.39-6.44h-.01c-7.36-3.26-15.15-7.01-17.94-9.44-4.22-3.66-15.01-20.86-20.64-30.04-2.22-3.62-6.14-5.82-10.36-5.82h-52.64c-3.74,0-7.27,1.72-9.58,4.69-7.05,9.04-22.19,28.48-26.11,33.72-2.65,3.55-10.97,8.56-18.42,12.59h-.01c-7.05,3.81-13.31,6.74-13.31,6.74,1.73-10.2,9.07-27.05,15.73-40.25h.01c4.63-9.19,8.95-16.61,10.84-18.81,4.6-5.37,8.44-7.27,66.51-7.27s63.44,2.53,67.29,8.53c1.63,2.55,5.89,9.34,10.38,17.55,6.06,11.1,12.56,24.81,13.65,34.25Z"/>
        <g>
          <path class="cls-16" d="m96.41,115.47c-.49,0-.97-.24-1.26-.68l-14.07-21.52c-.45-.69-.26-1.62.43-2.08.69-.45,1.62-.26,2.08.43l14.08,21.52c.45.69.26,1.62-.43,2.08-.25.17-.54.24-.82.24Z"/>
          <path class="cls-16" d="m74.34,133.65h-.01c-7.05,3.81-13.31,6.74-13.31,6.74,1.73-10.2,9.07-27.05,15.73-40.25h.01c10.67,14.61-2.02,32.93-2.42,33.51Z"/>
        </g>
        <g>
          <path class="cls-16" d="m210.6,116.29c-.28,0-.57-.08-.82-.25-.69-.45-.89-1.38-.43-2.08l14.96-22.82c.46-.69,1.38-.89,2.08-.43.69.45.89,1.38.43,2.08l-14.96,22.82c-.29.44-.77.68-1.26.68Z"/>
          <path class="cls-16" d="m245.43,134.39s-7.43-2.92-15.39-6.44h-.01c-.34-.51-8.89-13.26,1.75-27.81,6.06,11.1,12.56,24.81,13.65,34.25Z"/>
        </g>
        <path class="cls-16" d="m189.89,72.6c-.08,0-.17,0-.26-.02-1.01-.14-1.72-1.07-1.58-2.09l2.67-19.24c.44-3.21,2.86-5.82,6.02-6.5l10.61-2.28c1-.22,1.98.42,2.2,1.42s-.42,1.98-1.42,2.2l-10.61,2.28c-1.64.35-2.9,1.72-3.13,3.39l-2.67,19.24c-.13.93-.92,1.6-1.83,1.6Z"/>
        <path class="cls-16" d="m180.46,72.29s-.05,0-.07,0c-.83-.04-1.47-.74-1.43-1.57l.71-15.09c.04-.83.74-1.46,1.57-1.43.83.04,1.47.74,1.43,1.57l-.71,15.09c-.04.8-.7,1.43-1.5,1.43Z"/>
        <path class="cls-20" d="m209.35,36.79c.88,5.13.9,10.32.72,15.51,0,0-3.21.15-3.21.15-.38-2.57-.59-5.15-.74-7.74-.15-2.58-.22-5.17.02-7.77,0,0,3.21-.15,3.21-.15h0Z"/>
        <path class="cls-20" d="m219.26,274.42c-8.42,3.98-15.69,7.48-22.04,10.51-40.54,19.26-44.83,19.13-84.14,0-6.22-3.02-13.32-6.53-21.57-10.51,2.26-4.45,4.08-8.2,5.53-11.26h0c3.2-6.74,4.56-10.09,4.56-10.09,3.92,5.73,22.57,12.8,52.51,12.8s51.57-6.86,55.41-15l4.67,11.31,5.05,12.23Z"/>
        <path class="cls-25" d="m219.26,274.42c-8.42,3.98-15.69,7.48-22.04,10.51,0,0-3.13-16.14,16.99-22.74l5.05,12.23Z"/>
        <path class="cls-25" d="m113.07,284.93c-6.22-3.02-13.32-6.53-21.57-10.51,2.26-4.45,4.08-8.2,5.53-11.26h0c16.67,4.84,16.03,21.77,16.03,21.77Z"/>
        <path class="cls-16" d="m179.44,296.86c-14.49-3.39-15.96-30.09-16.01-31.22l3-.15c.01.25,1.41,25.57,13.7,28.45l-.68,2.92Z"/>
        <path class="cls-16" d="m130.63,296.81l-1.04-2.81c12.2-4.51,12.34-28.2,12.34-28.43h3c0,1.06-.16,26.02-14.3,31.25Z"/>
        <ellipse class="cls-16" cx="153.96" cy="282.17" rx="4.73" ry="8.27"/>
        <rect class="cls-31" x="149.23" y="280.77" width="9.45" height="2.8"/>
        <ellipse class="cls-16" cx="101.06" cy="90.12" rx="5.63" ry="4.14" transform="translate(-32.88 70.22) rotate(-33.27)"/>
        <ellipse class="cls-16" cx="206.58" cy="90.12" rx="4.14" ry="5.63" transform="translate(7.6 195.96) rotate(-51.58)"/>
        <path class="cls-16" d="m155.31,267.09c-22.83,0-46.49-4.24-54.8-12.98-.57-.6-.55-1.55.05-2.12.6-.57,1.55-.55,2.12.05,9.49,9.99,42.7,13.69,68.01,11.37,19.51-1.78,33.2-6.65,37.57-13.35.45-.69,1.38-.89,2.08-.44.69.45.89,1.38.44,2.08-6.67,10.24-27.8,13.6-39.81,14.7-5.04.46-10.33.69-15.67.69Z"/>
        <g>
          <ellipse class="cls-13" cx="74.6" cy="240.36" rx="5.05" ry="5.59" transform="translate(-157.75 143.65) rotate(-50.16)"/>
          <ellipse class="cls-13" cx="67.79" cy="217.07" rx="3.38" ry="3.74" transform="translate(-150.23 281.75) rotate(-89.18)"/>
          <ellipse class="cls-13" cx="67.95" cy="97.73" rx="5.58" ry="5.05" transform="translate(-17.01 14.36) rotate(-10.73)"/>
          <ellipse class="cls-13" cx="100.8" cy="58.71" rx="3.15" ry="2.85" transform="translate(-4.58 8.69) rotate(-4.83)"/>
          <circle class="cls-13" cx="144.5" cy="65.08" r="3.53"/>
          <circle class="cls-13" cx="241.56" cy="92.94" r="5.35"/>
          <circle class="cls-13" cx="237.62" cy="205.29" r="2.92"/>
          <circle class="cls-13" cx="227.32" cy="242.86" r="4.98"/>
          <ellipse class="cls-13" cx="245.43" cy="229.56" rx="3.24" ry="3.58" transform="translate(-46.05 396.8) rotate(-72.93)"/>
        </g>
      </g>
    </g>
  </g>
</svg>