<?xml version="1.0" encoding="UTF-8"?>
<svg id="Layer_1" data-name="Layer 1" xmlns="http://www.w3.org/2000/svg" xmlns:xlink="http://www.w3.org/1999/xlink" viewBox="0 0 310 310">
  <defs>
    <style>
      .cls-1 {
        fill: none;
      }

      .cls-2 {
        clip-path: url(#clippath);
      }

      .cls-3 {
        fill: #f2f2f2;
      }

      .cls-4 {
        fill: #e48574;
      }

      .cls-5 {
        fill: #fff;
      }

      .cls-6 {
        fill: #eb8977;
      }

      .cls-7 {
        fill: #f1e3ff;
      }

      .cls-8 {
        fill: #8247c7;
      }

      .cls-9 {
        fill: #c45950;
      }

      .cls-10 {
        fill: #b780f6;
      }

      .cls-11 {
        fill: #d8b7fb;
      }

      .cls-12 {
        fill: #d16355;
      }

      .cls-13 {
        fill: #d3b2f6;
      }

      .cls-14 {
        fill: #da6f5f;
      }

      .cls-15 {
        fill: #150033;
      }

      .cls-16 {
        fill: #361a31;
      }

      .cls-17 {
        fill: #975cd6;
      }

      .cls-18 {
        fill: #642f9e;
      }

      .cls-19 {
        fill: #592d3f;
      }

      .cls-20 {
        clip-path: url(#clippath-1);
      }

      .cls-21 {
        clip-path: url(#clippath-4);
      }

      .cls-22 {
        clip-path: url(#clippath-3);
      }

      .cls-23 {
        clip-path: url(#clippath-2);
      }
    </style>
    <clipPath id="clippath">
      <path class="cls-1" d="m187.98,177.74c-.32.86-5.66,2.28-10.92,1.91-5.51-.38-10.95-2.56-11.44-3.24-.96-1.33,5.76-6.99,12.25-6.63s10.78,6.19,10.11,7.96Z"/>
    </clipPath>
    <clipPath id="clippath-1">
      <path class="cls-1" d="m116.66,177.74c.32.86,5.66,2.28,10.92,1.91,5.51-.38,10.95-2.56,11.44-3.24.96-1.33-5.76-6.99-12.25-6.63-6.38.35-10.78,6.19-10.11,7.96Z"/>
    </clipPath>
    <clipPath id="clippath-2">
      <path class="cls-1" d="m195.07,119.52c.44,11.91-.77,21.89,1.65,29.68,2.43,7.79,2.31,35.02,5.79,35.02,2.6-20.42,5.36-41.55,4.58-49.59-.77-8.05-8.38-16.1-8.38-16.1,10.26-5.63,3.42-11.47-.99-15.44-4.41-3.97-17.54-12.14-17.54-12.14-2.21-9.38-13.02-3.97-13.02-3.97-6.73-15-27.36-12.57-24.05-7.06-19.75,1.65-29.68,3.86-27.91,18.53-10.15-3.2-13.02,7.31-11.47,13.27-7.39.55-.39,8.83-.39,8.83-7.64,7.07-6.33,13.7-5.63,24.51.69,10.81,3.06,35.48,5.08,35.49s1.55-26.22,3.41-33.15c2.77-10.34.52-21.37.52-21.37,6.41-5.54,16.56-11.54,16.56-11.54,9.12,1.12,13.05-4.4,13.05-4.4,8.66,8.07,29.32-2.56,29.32-2.56,5.58,3.35,14.76,1.77,14.76,1.77,4.07,8.92,14.68,10.23,14.68,10.23Z"/>
    </clipPath>
    <clipPath id="clippath-3">
      <path class="cls-1" d="m81.31,228.46l-6.9,7.39c-1.33-5.3-2.37-11.25-3.26-17.88-3.5-26.3-6.42-78.71-3.33-106.31l1.72,1.05c3.81,2.33,6.3,6.33,6.71,10.77l8.82,93.97c.37,4.04-.99,8.05-3.76,11Z"/>
    </clipPath>
    <clipPath id="clippath-4">
      <path class="cls-1" d="m237.5,149.5h0c-.16,25.6-1.78,53.6-3.12,68.96-.58,6.69-1.85,12.96-3.74,18.67l-8.11-8.68c-2.77-2.96-4.14-6.96-3.76-11l6.71-71.56h0s2.14-22.91,2.14-22.91c.39-4.16,2.6-7.94,6.04-10.33l2.39-1.66c1.17,10.22,1.54,23.97,1.44,38.52Z"/>
    </clipPath>
  </defs>
  <g>
    <rect class="cls-11" width="310" height="309.23"/>
    <path class="cls-7" d="m310,30.01C213.2,0,120.7,84.29,0,27.45V0h310v30.01Z"/>
    <path class="cls-17" d="m0,146.81c90.46-57.06,197.16,56.29,310-11.89v174.31H0"/>
    <path class="cls-18" d="m310,244.07C214.52,195.93,67.4,301.18,0,220.39v89.61h310v-65.93Z"/>
  </g>
  <g>
    <path class="cls-5" d="m234.38,218.46c-1.82,20.73-10.09,37.3-23.03,46.22-5.57,3.84-12,6.27-19.17,6.99-23.78,2.42-52.31,3.26-80.41-.96-7.73-1.17-13.96-3.22-19.02-6.27-13.3-8.01-18.48-22.88-21.61-46.49-4.33-32.58-7.79-105.28,0-121.15,7.78-15.87,26.06-30.56,80.96-30.56s71.95,12.68,80.71,30.24c7.78,15.57,4.15,92.34,1.56,121.99Z"/>
    <path class="cls-13" d="m234.87,212.5c-48.02-25.99-118.76-23.42-164.4,0,0,0,0-.01-.01-.04-2.7-23.5-4.82-61.46-3.59-88.12,38.43,28.4,131.13,28.52,170.23.36,1.26,27.14-.54,65.61-2.23,87.8Z"/>
    <path class="cls-8" d="m233.02,176.69h4.7c1.44,0,2.68,1.03,2.95,2.45l5.26,28.1c.22,1.16-.26,2.34-1.23,3.01l-11.68,8.16v-41.73Z"/>
    <path class="cls-8" d="m67.3,136.05s-13.62,10.98,0,22.15v-22.15Z"/>
    <g>
      <path class="cls-8" d="m240.75,190.46l-.78-2.9,5.33-1.43c1.6-.43,2.84-1.76,3.16-3.39l6.32-32.49,2.95.57-6.32,32.49c-.54,2.75-2.63,4.99-5.33,5.71l-5.33,1.43Z"/>
      <rect class="cls-10" x="253.01" y="152.01" width="2.5" height="13.48" transform="translate(41.64 370.03) rotate(-76.8)"/>
      <ellipse class="cls-15" cx="257.82" cy="146" rx="5.66" ry="7.44" transform="translate(63.73 369.87) rotate(-78.6)"/>
    </g>
    <path class="cls-10" d="m276.4,310H33.6c1.3-7.48,8.84-11.91,20.78-16.59h.01c8.98-3.53,20.47-7.2,33.67-12.43l128.25.06c13.87,4.89,26.23,8.43,36.11,11.93,13.19,4.68,21.97,9.31,23.99,17.03Z"/>
    <path class="cls-8" d="m252.42,292.97l-.2.44s-100.05,19.8-197.84,0c8.98-3.53,20.47-7.2,33.67-12.43l128.25.06c13.87,4.89,26.23,8.43,36.11,11.93Z"/>
    <g>
      <rect class="cls-12" x="113.99" y="236.95" width="75.15" height="44.03"/>
      <path class="cls-6" d="m189.15,249.35v31.63h-75.15v-14.29c13.99,3.98,54.94,13.62,75.15-17.33Z"/>
      <path class="cls-6" d="m202.35,190.28c0,1.52-.01,3.05-.02,4.59-.05,5.38-.24,10.84-.7,16.16-.48,5.68-1.29,11.21-2.59,16.33-3.35,13.11-28.08,32.18-31.86,34.91-3.78,2.73-28.27,2.47-31.89,0-3.61-2.47-21.3-17.73-26.83-28.95-3.36-6.81-5.09-14.86-5.92-23.5-.26-2.62-.43-5.3-.54-8.01-.13-3.08-.18-6.2-.18-9.36v-44.97c0-16.1.93-23.06,13.64-34.76,12.72-11.7,69.37-12.4,80.22,4.75,10.85,17.16,6.66,60.32,6.66,72.81Z"/>
      <path class="cls-6" d="m200.68,213.11l.23-5.88,1.37-35.2c5.39-3.26,9.13-4.24,11.48-2.6,1.51,1.04,2.45,3.15,2.88,6.42,1.12,8.37,2.7,37.01-15.97,37.26Z"/>
      <path class="cls-12" d="m200.68,213.11l.23-5.88c5.49-.86,11.9-7.83,4.92-14.26l7.93-23.54c1.51,1.04,2.45,3.15,2.88,6.42,1.12,8.37,2.7,37.01-15.97,37.26Z"/>
      <path class="cls-14" d="m202.35,190.28c0,1.52-.01,3.05-.02,4.59-.05,5.38-.24,10.84-.7,16.16-17.32-2.08-15.56-22.43.72-20.75Z"/>
      <path class="cls-14" d="m102.54,209.82c-.26-2.62-.43-5.3-.54-8.01-.13-3.08-.18-6.2-.18-9.36,18.84-3.74,18.46,17.36.72,17.36Z"/>
      <path class="cls-6" d="m103.49,211.51c-13.14,4.81-15.65-15.79-15.6-30.02.02-6.85,1.68-10.66,4.23-12.23,2.74-1.69,6.52-.79,10.44,1.7l.81,35.34.12,5.22Z"/>
      <path class="cls-12" d="m103.49,211.51c-13.14,4.81-15.65-15.79-15.6-30.02.02-6.85,1.68-10.66,4.23-12.23h.01s7.65,23.7,7.65,23.7c-6.01,3.24-5.34,11.91,3.59,13.34l.12,5.22Z"/>
      <path class="cls-19" d="m202.32,194.87c-.11,11.11-.76,22.58-3.29,32.49-3.35,13.11-28.08,32.18-31.86,34.91-3.78,2.73-28.27,2.47-31.89,0-3.61-2.47-21.3-17.73-26.83-28.95-4.38-8.88-5.99-19.85-6.46-31.5,0,0,8.55,12.34,10.39,22.37,0,0,3.34-1.27,5.77,2.65,0,0,1.5-13.51,2.31-15.01.8-1.5,12-.66,26.68-.66,0,0,6.32,1.93,10-.62,0,0,21.94-1.6,25.4.44,3.47,2.03.46,16.2.46,16.2,0,0,3.81-3.11,6.13-2.07,0,0,2.42-6.46,7.03-7.39,0,0,.57-16.39,6.15-22.85Z"/>
      <path class="cls-4" d="m126.63,219.25c-2.32,15.47,8.73,23.88,8.73,23.88,5.71-3.12,7.91,2.19,7.91,2.08,7.44-3.02,10.41,1.77,10.41,1.77,6.36-6.56,15.37-3.64,18.83-6.76,3.46-3.12,3.24-21.42,3.24-21.42-.51-2.07-11.92.98-22.79.98-12.05,0-25.76-2.83-26.33-.53Z"/>
      <path class="cls-9" d="m130.87,219.91c13.52,3.34,27.84,3.88,41.33.1,0,0,.68,1.41.68,1.41-11.37,6.26-25.41,6.06-37.51,2.13-1.73-.58-3.4-1.31-5.07-2.03l.57-1.61h0Z"/>
      <path class="cls-19" d="m142.61,232.16c1.31,6.14,6.5,5.04,7.03,1.57,2.89,6.98,9.92,3.95,10.47-1.77-6.26-2.28-17.51.2-17.51.2Z"/>
      <path class="cls-19" d="m194.79,165.99c-.95,1.04-11.27-2.91-11.27-2.91-10.32.42-18.73,0-20-.69-1.27-.69-3.33-3.25-2.14-4.91,1.19-1.66,18.33,0,22.3,0s12.06,7.47,11.11,8.51Z"/>
      <path class="cls-19" d="m143.15,157.48c2.82.92.47,5.54-1.49,6.1-1.96.56-24.12,1.04-24.12,1.04,0,0-7.86,4.03-8.52,3.49s3.88-8.2,7.15-9.76,24.16-1.79,26.98-.87Z"/>
      <path class="cls-12" d="m162.48,152.69c-2.48.72-4.7,2.42-5.5,4.92,0,0-1.7-.26-1.7-.26.2-1.79,1.06-3.28,2.37-4.44,1.27-1.12,2.91-1.7,4.58-1.78,0,0,.26,1.56.26,1.56h0Z"/>
      <path class="cls-19" d="m195.07,119.52c.44,11.91-.77,21.89,1.65,29.68,2.43,7.79,2.31,35.02,5.79,35.02,2.6-20.42,5.36-41.55,4.58-49.59-.77-8.05-8.38-16.1-8.38-16.1,10.26-5.63,3.42-11.47-.99-15.44-4.41-3.97-17.54-12.14-17.54-12.14-2.21-9.38-13.02-3.97-13.02-3.97-6.73-15-27.36-12.57-24.05-7.06-19.75,1.65-29.68,3.86-27.91,18.53-10.15-3.2-13.02,7.31-11.47,13.27-7.39.55-.39,8.83-.39,8.83-7.64,7.07-6.33,13.7-5.63,24.51.69,10.81,3.06,35.48,5.08,35.49s1.55-26.22,3.41-33.15c2.77-10.34.52-21.37.52-21.37,6.41-5.54,16.56-11.54,16.56-11.54,9.12,1.12,13.05-4.4,13.05-4.4,8.66,8.07,29.32-2.56,29.32-2.56,5.58,3.35,14.76,1.77,14.76,1.77,4.07,8.92,14.68,10.23,14.68,10.23Z"/>
      <g>
        <path class="cls-3" d="m187.98,177.74c-.32.86-5.66,2.28-10.92,1.91-5.51-.38-10.95-2.56-11.44-3.24-.96-1.33,5.76-6.99,12.25-6.63s10.78,6.19,10.11,7.96Z"/>
        <g class="cls-2">
          <circle class="cls-15" cx="176.92" cy="174.27" r="5.84"/>
        </g>
        <path class="cls-15" d="m165.12,176.38c.61-5.07,7.7-8.28,12.34-8.08,4,0,8.02,2.11,10.09,5.57.66,1.27,1.34,2.45.91,4.03,0,0-.95-.31-.95-.31-1.42-3.93-6.07-6.29-10.1-6.33-4.04-.05-9.1,1.61-11.29,5.19,0,0-1-.07-1-.07h0Z"/>
      </g>
      <g>
        <path class="cls-3" d="m116.66,177.74c.32.86,5.66,2.28,10.92,1.91,5.51-.38,10.95-2.56,11.44-3.24.96-1.33-5.76-6.99-12.25-6.63-6.38.35-10.78,6.19-10.11,7.96Z"/>
        <g class="cls-20">
          <circle class="cls-15" cx="127.72" cy="174.27" r="5.84"/>
        </g>
        <path class="cls-15" d="m138.52,176.44c-.87-1.79-3.14-3.09-4.96-3.92-5.39-2.48-12.49-1.36-15.87,3.79-.29.43-.51.96-.56,1.27l-.95.31c-.62-2.75,1.59-5.34,3.53-6.99,5.27-4.26,13.62-3.06,18.05,1.83.88,1.06,1.74,2.14,1.76,3.64,0,0-1,.07-1,.07h0Z"/>
      </g>
      <path class="cls-12" d="m156.37,169.3l4.58,25.12s-.53-.81-.53-.81c1.99,1.18,3.95,2.61,5.43,4.71,2.29,3.02,1.79,7.25-1.53,9.35-1.09.76-3.46,1.81-4.62,2.43-2.99,1.55-6.94,2.97-10.53,2.15-4.11-.83-7.67-3.13-10.85-5.7-4.76-3.82-2.81-8.35,1.76-11.12,0,0,1.13,1.65,1.13,1.65-1.44,1.07-3.25,2.59-3.32,4.36.04,1.81,1.85,3.01,3.33,4.07,5.73,3.97,10.77,5.63,17.12,1.86,0,0,2.95-1.53,2.95-1.53,6.06-2.62,1.42-7.63-2.2-10.2,0,0-.45-.31-.45-.31l-.08-.5-4.16-25.19s1.97-.34,1.97-.34h0Z"/>
      <g class="cls-23">
        <g>
          <path class="cls-16" d="m165.63,110.89c-.39,0-.78-.16-1.08-.46-.42-.44-10.31-11.14-11.64-37.1-.04-.82.59-1.52,1.41-1.56.85-.03,1.52.59,1.56,1.41,1.26,24.75,10.73,35.11,10.82,35.21.56.6.53,1.54-.06,2.1-.29.27-.66.41-1.02.41Z"/>
          <path class="cls-16" d="m179.35,112.94c-.33,0-.66-.11-.94-.34-.41-.34-10.16-8.53-11.69-26.88-.07-.82.54-1.54,1.36-1.61.8-.08,1.54.54,1.61,1.36,1.42,17.02,10.53,24.75,10.62,24.83.63.52.72,1.46.2,2.09-.29.36-.72.54-1.15.54Z"/>
          <path class="cls-16" d="m184.78,119.52c-.32,0-.65-.1-.92-.32-.64-.51-.75-1.44-.25-2.09.09-.12,9.4-12.08,5.16-20.85-.36-.74-.05-1.63.69-1.99.73-.36,1.63-.05,1.99.69,5.05,10.44-5.07,23.44-5.5,23.99-.29.37-.73.56-1.17.56Z"/>
          <path class="cls-16" d="m150.34,116.85c-.2,0-.4-.04-.6-.12-10.5-4.6-9.65-16.77-8.96-26.55.36-5.15.71-10.02-.86-11.75-.55-.61-.5-1.55.11-2.1.61-.55,1.55-.5,2.1.11,2.42,2.67,2.05,7.9,1.62,13.96-.66,9.31-1.4,19.86,7.19,23.62.75.33,1.09,1.21.77,1.96-.25.56-.79.89-1.36.89Z"/>
          <path class="cls-16" d="m136.31,113.85c-.38,0-.76-.15-1.05-.44-4.93-4.95-12.49-22.4-1.95-36.17.5-.65,1.43-.78,2.08-.28s.78,1.43.28,2.08c-9.29,12.14-2.55,28,1.69,32.26.58.58.58,1.52,0,2.1-.29.29-.67.43-1.05.43Z"/>
          <path class="cls-16" d="m123.25,118.94c-.24,0-.48-.06-.7-.18-11.14-6-10.94-21.34-10.92-21.99.02-.81.68-1.45,1.49-1.45.01,0,.02,0,.03,0,.82.02,1.47.7,1.46,1.52,0,.14-.17,14.18,9.36,19.31.72.39.99,1.29.6,2.01-.27.5-.78.78-1.31.78Z"/>
        </g>
      </g>
    </g>
    <path class="cls-10" d="m237.5,149.5h0c-.16,25.6-1.78,53.6-3.12,68.96-.58,6.69-1.85,12.96-3.74,18.67l-8.11-8.68c-2.77-2.96-4.14-6.96-3.76-11l6.71-71.56h0s2.14-22.91,2.14-22.91c.39-4.16,2.6-7.94,6.04-10.33l2.39-1.66c1.17,10.22,1.54,23.97,1.44,38.52Z"/>
    <path class="cls-10" d="m81.31,228.46l-6.9,7.39c-1.33-5.3-2.37-11.25-3.26-17.88-3.5-26.3-6.42-78.71-3.33-106.31l1.72,1.05c3.81,2.33,6.3,6.33,6.71,10.77l8.82,93.97c.37,4.04-.99,8.05-3.76,11Z"/>
    <ellipse class="cls-15" cx="231.23" cy="173.68" rx="5.19" ry="2.66" transform="translate(33.61 384.8) rotate(-83.8)"/>
    <path class="cls-8" d="m75.17,182.46l-5.06-4.91c-1.66-1.62-1.83-4.21-.39-6.03l3.39-4.28c.25-.32.37-.72.31-1.13s-.27-.77-.6-1.01l-2.24-1.66c-1.91-1.41-2.39-4.07-1.1-6.07l3.14-4.84,2.52,1.63-3.14,4.84c-.43.66-.27,1.55.37,2.02l2.24,1.66c.99.73,1.62,1.81,1.79,3.03s-.17,2.42-.93,3.39l-3.39,4.28c-.48.61-.43,1.47.13,2.01l5.06,4.91-2.09,2.15Z"/>
    <path class="cls-8" d="m237.5,149.5h0s-12.01-3.62-12.01-3.62h0s2.14-22.91,2.14-22.91c.39-4.16,2.6-7.94,6.04-10.33l2.39-1.66c1.17,10.22,1.54,23.97,1.44,38.52Z"/>
    <path class="cls-10" d="m216.31,281.04c-5.8,1.84-20.18,5.87-40.11,7.88-11.36,1.16-24.52,1.66-38.92.72-15.23-.98-31.86-3.56-49.22-8.66-1.54-.46-2.29-2.2-1.59-3.63l6.3-12.9c5.06,3.05,11.28,5.1,19.02,6.27,28.1,4.22,56.63,3.37,80.41.96,7.16-.72,13.6-3.14,19.17-6.99h.37l6.14,12.75c.68,1.43-.05,3.12-1.56,3.6Z"/>
    <path class="cls-13" d="m176.2,288.92c-11.36,1.16-24.52,1.66-38.92.72,11.23-14.91,31.52-9.53,38.92-.72Z"/>
    <g>
      <ellipse class="cls-15" cx="189.79" cy="279.36" rx="3.58" ry="2.76" transform="translate(-63.79 56.29) rotate(-14.47)"/>
      <circle class="cls-8" cx="202.88" cy="277.24" r="2.05"/>
    </g>
    <g>
      <ellipse class="cls-15" cx="115.03" cy="279.36" rx="2.76" ry="3.58" transform="translate(-184.22 320.93) rotate(-75.53)"/>
      <circle class="cls-8" cx="101.93" cy="277.24" r="2.05"/>
    </g>
    <circle class="cls-5" cx="254.24" cy="106.45" r="4.91"/>
    <ellipse class="cls-5" cx="246.54" cy="84.2" rx="5.39" ry="6.12" transform="translate(84.02 287.81) rotate(-70.26)"/>
    <ellipse class="cls-5" cx="70.73" cy="73.55" rx="4.87" ry="4.29" transform="translate(-14.68 17.71) rotate(-12.95)"/>
    <circle class="cls-5" cx="58.41" cy="125.94" r="2.75"/>
    <circle class="cls-5" cx="56.55" cy="196.9" r="5.95"/>
    <circle class="cls-5" cx="248.18" cy="247.23" r="4.99"/>
    <g class="cls-22">
      <g>
        <rect class="cls-8" x="74.56" y="186.72" width="3" height="20.34" transform="translate(-133.91 175.32) rotate(-63.01)"/>
        <path class="cls-8" d="m82.12,228.4l-5.3-17.87c-.57-1.92-1.81-3.66-3.49-4.88l-6.64-4.86,1.77-2.42,6.64,4.86c2.21,1.62,3.84,3.91,4.6,6.45l5.3,17.87-2.88.85Z"/>
      </g>
    </g>
    <g class="cls-21">
      <g>
        <rect class="cls-8" x="217.69" y="197.27" width="20.8" height="3" transform="translate(-62.51 114.58) rotate(-24.91)"/>
        <path class="cls-8" d="m222.56,231.38l-2.87-.88,5.93-19.23c.65-2.09,2.01-3.91,3.84-5.12l6.46-4.25,1.65,2.51-6.46,4.25c-1.25.82-2.18,2.06-2.62,3.49l-5.93,19.23Z"/>
      </g>
    </g>
    <circle class="cls-5" cx="191.49" cy="63.03" r="3.2"/>
    <circle class="cls-5" cx="59.44" cy="224.06" r="3.94"/>
  </g>
</svg>