<svg version="1.1" xmlns="http://www.w3.org/2000/svg" viewBox="0 0 848.2421875 590.2578125" width="848.2421875" height="590.2578125" filter="invert(93%) hue-rotate(180deg)">
  <!-- svg-source:excalidraw -->
  
  <defs>
    <style class="style-fonts">
      @font-face {
        font-family: "Virgil";
        src: url("https://excalidraw.com/Virgil.woff2");
      }
      @font-face {
        font-family: "Cascadia";
        src: url("https://excalidraw.com/Cascadia.woff2");
      }
    </style>
  </defs>
  <g stroke-linecap="round" transform="translate(10 62.84765625) rotate(0 414.12109375 258.705078125)"><path d="M32 0 M32 0 C210.79 3.36, 387.75 1.97, 796.24 0 M32 0 C299.87 0.15, 568.22 0.03, 796.24 0 M796.24 0 C819.43 -0.18, 829.47 11.61, 828.24 32 M796.24 0 C819.23 2.08, 828.86 11.82, 828.24 32 M828.24 32 C827.46 152.21, 827.71 272.2, 828.24 485.41 M828.24 32 C826.5 187.75, 826.42 343.96, 828.24 485.41 M828.24 485.41 C827.65 508.45, 817.05 516.58, 796.24 517.41 M828.24 485.41 C827.5 508.27, 818.25 517.24, 796.24 517.41 M796.24 517.41 C575.62 516.99, 355.78 516.55, 32 517.41 M796.24 517.41 C506.41 518.19, 216.45 517.93, 32 517.41 M32 517.41 C10.17 517.37, 0.57 504.96, 0 485.41 M32 517.41 C8.38 515.18, -1.95 508.84, 0 485.41 M0 485.41 C2.2 321.19, 1.36 155.34, 0 32 M0 485.41 C-0.29 316.34, -0.11 147.41, 0 32 M0 32 C1.67 9.33, 9.17 1.57, 32 0 M0 32 C-0.39 8.47, 10.64 0.9, 32 0" stroke="#000000" stroke-width="1" fill="none"></path></g><g transform="translate(398.16015625 10) rotate(0 20.7449951171875 22.423543596890525)"><text x="0" y="0" font-family="Virgil, Segoe UI Emoji" font-size="17.93883487751242px" fill="#000000" text-anchor="start" style="white-space: pre;" direction="ltr" dominant-baseline="text-before-edge">Node</text><text x="0" y="22.423543596890525" font-family="Virgil, Segoe UI Emoji" font-size="17.93883487751242px" fill="#000000" text-anchor="start" style="white-space: pre;" direction="ltr" dominant-baseline="text-before-edge"></text></g><g stroke-linecap="round" transform="translate(70.65625 135.7890625) rotate(0 157.689453125 69.90625)"><path d="M32 0 M32 0 C96.3 -1.99, 159.34 -1.28, 283.38 0 M32 0 C83.92 2.38, 134.8 1.01, 283.38 0 M283.38 0 C303.88 -0.13, 315.91 10.08, 315.38 32 M283.38 0 C304.76 1.3, 315.6 10.29, 315.38 32 M315.38 32 C317.5 52.25, 315.49 71.19, 315.38 107.81 M315.38 32 C314.33 55.72, 314.26 78.84, 315.38 107.81 M315.38 107.81 C315.13 130.81, 305.22 140.63, 283.38 139.81 M315.38 107.81 C315 129.73, 305.22 137.81, 283.38 139.81 M283.38 139.81 C213.58 140.19, 144.38 140.62, 32 139.81 M283.38 139.81 C185.43 139.71, 87 139.05, 32 139.81 M32 139.81 C11.83 140.31, -0.36 129.01, 0 107.81 M32 139.81 C10.13 140.51, 1.56 129.71, 0 107.81 M0 107.81 C1.74 80.63, 1.22 55.85, 0 32 M0 107.81 C0.14 83, -1.04 58.72, 0 32 M0 32 C-1.53 11.84, 12.11 0.03, 32 0 M0 32 C-1.81 9.14, 10.53 0.56, 32 0" stroke="#000000" stroke-width="1" fill="none"></path></g><g transform="translate(178.046875 91.5078125) rotate(0 36.76996612548828 12.5)"><text x="0" y="0" font-family="Virgil, Segoe UI Emoji" font-size="20px" fill="#000000" text-anchor="start" style="white-space: pre;" direction="ltr" dominant-baseline="text-before-edge">Runtime</text></g><g transform="translate(137.68468475341797 149.66015625) rotate(0 80.03992462158203 12.5)"><text x="0" y="0" font-family="Virgil, Segoe UI Emoji" font-size="20px" fill="#000000" text-anchor="start" style="white-space: pre;" direction="ltr" dominant-baseline="text-before-edge">pallet-contracts</text></g><g stroke-linecap="round" transform="translate(67.92578125 361.982421875) rotate(0 158.28515625 27.474609375)"><path d="M13.74 0 M13.74 0 C90.42 0.92, 168.18 0.05, 302.83 0 M13.74 0 C93.9 1.28, 174 1.22, 302.83 0 M302.83 0 C313.86 -1.94, 314.62 2.8, 316.57 13.74 M302.83 0 C311.09 1.18, 315.37 6.21, 316.57 13.74 M316.57 13.74 C317.23 22.89, 314.89 27.95, 316.57 41.21 M316.57 13.74 C317.04 23.72, 315.5 33.97, 316.57 41.21 M316.57 41.21 C318.3 51.88, 311.67 56.73, 302.83 54.95 M316.57 41.21 C316.69 48.22, 312.76 55.06, 302.83 54.95 M302.83 54.95 C195.24 56.66, 90.71 57.96, 13.74 54.95 M302.83 54.95 C210.55 54.26, 117.4 53.51, 13.74 54.95 M13.74 54.95 C4.09 54.52, -0.18 51.61, 0 41.21 M13.74 54.95 C2.61 57.01, -1.68 52.09, 0 41.21 M0 41.21 C0.92 31.54, -1.77 23.05, 0 13.74 M0 41.21 C0.91 32.02, -0.37 25.07, 0 13.74 M0 13.74 C-0.36 3.07, 2.72 0.81, 13.74 0 M0 13.74 C1.51 4.08, 5.23 2.15, 13.74 0" stroke="#000000" stroke-width="1" fill="none"></path></g><g transform="translate(161.00382232666016 376.95703125) rotate(0 65.08992767333984 12.5)"><text x="0" y="0" font-family="Virgil, Segoe UI Emoji" font-size="20px" fill="#000000" text-anchor="start" style="white-space: pre;" direction="ltr" dominant-baseline="text-before-edge">pallet-system</text></g><g stroke-linecap="round" transform="translate(67.92578125 289.01171875) rotate(0 158.28515625 27.474609375)"><path d="M13.74 0 M13.74 0 C77.99 2.56, 145.71 0.44, 302.83 0 M13.74 0 C120.13 1.25, 226.2 0.07, 302.83 0 M302.83 0 C310.33 -1.9, 317.09 4.39, 316.57 13.74 M302.83 0 C311.92 1.75, 315.85 2.51, 316.57 13.74 M316.57 13.74 C315.02 21.99, 314.41 30.93, 316.57 41.21 M316.57 13.74 C315.68 24.69, 316.89 35.93, 316.57 41.21 M316.57 41.21 C315.76 51.57, 311.49 55.81, 302.83 54.95 M316.57 41.21 C314.57 50.33, 310.66 54.48, 302.83 54.95 M302.83 54.95 C210.25 53.9, 116.54 53.53, 13.74 54.95 M302.83 54.95 C244.28 57.01, 186.17 55.99, 13.74 54.95 M13.74 54.95 C6.3 54.48, 1.32 51.48, 0 41.21 M13.74 54.95 C4.92 56.61, 0.53 50.21, 0 41.21 M0 41.21 C-1.52 32.92, -1.46 20.72, 0 13.74 M0 41.21 C-0.17 34.4, 0.31 28.3, 0 13.74 M0 13.74 C-0.76 2.83, 3.62 -0.83, 13.74 0 M0 13.74 C-0.63 3.9, 2.97 0.74, 13.74 0" stroke="#000000" stroke-width="1" fill="none"></path></g><g transform="translate(161.12100982666016 304.103515625) rotate(0 73.72993469238281 12.5)"><text x="0" y="0" font-family="Virgil, Segoe UI Emoji" font-size="20px" fill="#000000" text-anchor="start" style="white-space: pre;" direction="ltr" dominant-baseline="text-before-edge">pallet-balances</text></g><g transform="translate(99.33203125 194.640625) rotate(0 60.1839599609375 30)"><text x="0" y="0" font-family="Virgil, Segoe UI Emoji" font-size="16px" fill="#000000" text-anchor="start" style="white-space: pre;" direction="ltr" dominant-baseline="text-before-edge">- upload_code </text><text x="0" y="20" font-family="Virgil, Segoe UI Emoji" font-size="16px" fill="#000000" text-anchor="start" style="white-space: pre;" direction="ltr" dominant-baseline="text-before-edge">- instantiate</text><text x="0" y="40" font-family="Virgil, Segoe UI Emoji" font-size="16px" fill="#000000" text-anchor="start" style="white-space: pre;" direction="ltr" dominant-baseline="text-before-edge">- call</text></g><g stroke-linecap="round" transform="translate(450.8125 138.2226562500001) rotate(0 150.5625 112.91406249999994)"><path d="M32 0 M32 0 C110.7 -2.62, 191.42 -2.38, 269.13 0 M32 0 C96.14 -1.99, 160.7 -2.49, 269.13 0 M269.13 0 C289.77 -1.09, 302.47 9.4, 301.13 32 M269.13 0 C288.8 1.41, 300.55 12.61, 301.13 32 M301.13 32 C300.58 76.5, 301.54 121.84, 301.13 193.83 M301.13 32 C302.58 69.31, 301.59 107.81, 301.13 193.83 M301.13 193.83 C301.76 215.49, 290.24 225.3, 269.13 225.83 M301.13 193.83 C300.49 217.06, 290.8 225.25, 269.13 225.83 M269.13 225.83 C173.65 225.06, 80.73 226.41, 32 225.83 M269.13 225.83 C211.79 227.18, 155.63 227.76, 32 225.83 M32 225.83 C11.44 224.52, -1.02 214.19, 0 193.83 M32 225.83 C9.79 226.26, -0.32 216.68, 0 193.83 M0 193.83 C-1.41 132.58, -2.11 69.15, 0 32 M0 193.83 C-0.11 139.32, -0.47 85.39, 0 32 M0 32 C-0.69 8.75, 11.09 1.54, 32 0 M0 32 C0.52 11.19, 11.18 -0.02, 32 0" stroke="#000000" stroke-width="1" fill="none"></path></g><g transform="translate(548.9126892089844 152.046875) rotate(0 52.559967041015625 12.5)"><text x="0" y="0" font-family="Virgil, Segoe UI Emoji" font-size="20px" fill="#000000" text-anchor="start" style="white-space: pre;" direction="ltr" dominant-baseline="text-before-edge">RPC - API</text></g><g transform="translate(475.96484375 193.5349423308782) rotate(0 100.98392486572266 70)"><text x="0" y="0" font-family="Virgil, Segoe UI Emoji" font-size="16px" fill="#000000" text-anchor="start" style="white-space: pre;" direction="ltr" dominant-baseline="text-before-edge">author</text><text x="0" y="20" font-family="Virgil, Segoe UI Emoji" font-size="16px" fill="#000000" text-anchor="start" style="white-space: pre;" direction="ltr" dominant-baseline="text-before-edge">- submit_extrinsic</text><text x="0" y="40" font-family="Virgil, Segoe UI Emoji" font-size="16px" fill="#000000" text-anchor="start" style="white-space: pre;" direction="ltr" dominant-baseline="text-before-edge"></text><text x="0" y="60" font-family="Virgil, Segoe UI Emoji" font-size="16px" fill="#000000" text-anchor="start" style="white-space: pre;" direction="ltr" dominant-baseline="text-before-edge">ContractsAPI state call:</text><text x="0" y="80" font-family="Virgil, Segoe UI Emoji" font-size="16px" fill="#000000" text-anchor="start" style="white-space: pre;" direction="ltr" dominant-baseline="text-before-edge">- upload_code </text><text x="0" y="100" font-family="Virgil, Segoe UI Emoji" font-size="16px" fill="#000000" text-anchor="start" style="white-space: pre;" direction="ltr" dominant-baseline="text-before-edge">- instantiate</text><text x="0" y="120" font-family="Virgil, Segoe UI Emoji" font-size="16px" fill="#000000" text-anchor="start" style="white-space: pre;" direction="ltr" dominant-baseline="text-before-edge">- call</text></g><g stroke-linecap="round" transform="translate(461.55859375 375.8125) rotate(0 144.365234375 57.845703125)"><path d="M28.92 0 M28.92 0 C111.55 -2.92, 192.44 -2.09, 259.81 0 M28.92 0 C96.05 0.89, 162.87 0.19, 259.81 0 M259.81 0 C279.95 0.4, 289.9 8.15, 288.73 28.92 M259.81 0 C278.52 1.98, 287.48 11.63, 288.73 28.92 M288.73 28.92 C287.18 49.52, 287.95 73.21, 288.73 86.77 M288.73 28.92 C288.66 45.33, 288.97 64.17, 288.73 86.77 M288.73 86.77 C290.13 107.89, 279.52 117.61, 259.81 115.69 M288.73 86.77 C288.72 108.28, 281.37 115.87, 259.81 115.69 M259.81 115.69 C196.82 117.49, 130.47 118.5, 28.92 115.69 M259.81 115.69 C210.62 113.34, 161.68 113.43, 28.92 115.69 M28.92 115.69 C9.81 114.74, -0.08 104.86, 0 86.77 M28.92 115.69 C10.97 116.48, -2.28 103.92, 0 86.77 M0 86.77 C-0.42 69.96, -1.81 50.34, 0 28.92 M0 86.77 C-0.65 68.36, -0.49 49.72, 0 28.92 M0 28.92 C1.12 8.04, 7.88 -1.19, 28.92 0 M0 28.92 C-0.73 11.68, 9.97 0.63, 28.92 0" stroke="#000000" stroke-width="1" fill="none"></path></g><g transform="translate(506.2531433105469 387.90625) rotate(0 96.61990356445312 12.5)"><text x="0" y="0" font-family="Virgil, Segoe UI Emoji" font-size="20px" fill="#000000" text-anchor="start" style="white-space: pre;" direction="ltr" dominant-baseline="text-before-edge">Core infrastructure</text></g><g transform="translate(486.0474090576172 444.24609375) rotate(0 108.70392608642578 10)"><text x="0" y="0" font-family="Virgil, Segoe UI Emoji" font-size="16px" fill="#000000" text-anchor="start" style="white-space: pre;" direction="ltr" dominant-baseline="text-before-edge">Storage, P2P networking, ...</text></g><g stroke-linecap="round" transform="translate(42.04296875 83.32421875) rotate(0 181.92578125 214.25)"><path d="M32 0 M32 0 C96.93 -0.37, 165.53 -0.5, 331.85 0 M32 0 C128.7 -1.04, 225.07 -1.98, 331.85 0 M331.85 0 C351.93 0.2, 364.67 12.63, 363.85 32 M331.85 0 C352.45 0.86, 363.98 11.45, 363.85 32 M363.85 32 C360.44 156.31, 362.19 279.21, 363.85 396.5 M363.85 32 C363.83 172.29, 363.98 311.21, 363.85 396.5 M363.85 396.5 C363.73 418.49, 351.6 428.12, 331.85 428.5 M363.85 396.5 C363.04 417.57, 353.27 428.62, 331.85 428.5 M331.85 428.5 C243.96 427.87, 153.44 428.58, 32 428.5 M331.85 428.5 C251.54 429.66, 170.83 430.64, 32 428.5 M32 428.5 C11 428.24, -1.62 418.94, 0 396.5 M32 428.5 C10.78 428.44, 0.83 415.83, 0 396.5 M0 396.5 C0.41 309.1, 2.1 224.32, 0 32 M0 396.5 C0.12 303.81, 0.42 210.66, 0 32 M0 32 C0.38 8.67, 12.65 -0.8, 32 0 M0 32 C0.73 10.25, 9.69 0.52, 32 0" stroke="#000000" stroke-width="1" fill="none"></path></g><g stroke-linecap="round" transform="translate(416.16015625 87.228515625) rotate(0 181.92578125 210.869140625)"><path d="M32 0 M32 0 C96.65 1.31, 165 1.29, 331.85 0 M32 0 C118.22 -0.19, 204 -1.56, 331.85 0 M331.85 0 C351.61 -0.25, 365.1 11.7, 363.85 32 M331.85 0 C351.36 0.79, 363.48 9.62, 363.85 32 M363.85 32 C362.24 125.9, 363.62 221.1, 363.85 389.74 M363.85 32 C364.65 160.88, 364.65 289.5, 363.85 389.74 M363.85 389.74 C365.53 412.87, 352.15 421.48, 331.85 421.74 M363.85 389.74 C365.14 412, 354.24 422.56, 331.85 421.74 M331.85 421.74 C244 424.26, 155.27 423.86, 32 421.74 M331.85 421.74 C225.39 422.61, 119.35 423.54, 32 421.74 M32 421.74 C11.14 423.5, -1.62 410.78, 0 389.74 M32 421.74 C12.04 421.14, 0.92 408.78, 0 389.74 M0 389.74 C-1.89 313.59, -3.22 236.58, 0 32 M0 389.74 C-1.3 270.04, -2.27 149.28, 0 32 M0 32 C1.52 11.32, 12.21 -1.56, 32 0 M0 32 C1.6 9.89, 10.85 -0.8, 32 0" stroke="#000000" stroke-width="1" fill="none"></path></g><g stroke-linecap="round" transform="translate(69.484375 422.701171875) rotate(0 158.28515625 27.474609375)"><path d="M13.74 0 M13.74 0 C104.24 -1.3, 194.21 -0.63, 302.83 0 M13.74 0 C96.41 -1.42, 180.1 -0.91, 302.83 0 M302.83 0 C313.45 0.98, 316.4 3.26, 316.57 13.74 M302.83 0 C312.92 0.56, 315.56 2.4, 316.57 13.74 M316.57 13.74 C316.58 24.21, 315.64 35.37, 316.57 41.21 M316.57 13.74 C317.22 24.78, 316.03 35.63, 316.57 41.21 M316.57 41.21 C316.11 49.92, 312.41 53.84, 302.83 54.95 M316.57 41.21 C318.81 48.67, 313.49 55.41, 302.83 54.95 M302.83 54.95 C200.18 54.39, 96.81 52.17, 13.74 54.95 M302.83 54.95 C224.89 54.43, 145.97 54.15, 13.74 54.95 M13.74 54.95 C6.42 54.53, -1.49 49.98, 0 41.21 M13.74 54.95 C2.49 56.52, -1.87 51.71, 0 41.21 M0 41.21 C0.29 34.17, -0.69 26.73, 0 13.74 M0 41.21 C-0.7 34.97, -0.54 29.85, 0 13.74 M0 13.74 C1.22 4.33, 6.14 0.1, 13.74 0 M0 13.74 C0.24 2.55, 5.57 1.09, 13.74 0" stroke="#000000" stroke-width="1" fill="none"></path></g><g transform="translate(162.56241607666016 437.67578125) rotate(0 48.11994934082031 12.5)"><text x="0" y="0" font-family="Virgil, Segoe UI Emoji" font-size="20px" fill="#000000" text-anchor="start" style="white-space: pre;" direction="ltr" dominant-baseline="text-before-edge">pallet-xyz</text></g><g transform="translate(574.6236953735352 98.48270640310943) rotate(0 24.25030517578125 11.211771798445255)"><text x="0" y="0" font-family="Virgil, Segoe UI Emoji" font-size="17.93883487751242px" fill="#000000" text-anchor="start" style="white-space: pre;" direction="ltr" dominant-baseline="text-before-edge">Client</text></g></svg>