<svg version="1.1" xmlns="http://www.w3.org/2000/svg" viewBox="0 0 1477.6075769826766 848.6396359411267" width="1477.6075769826766" height="848.6396359411267" filter="invert(93%) hue-rotate(180deg)">
  <!-- svg-source:excalidraw -->
  
  <defs>
    <style class="style-fonts">
      @font-face {
        font-family: "Virgil";
        src: url("https://excalidraw.com/Virgil.woff2");
      }
      @font-face {
        font-family: "Cascadia";
        src: url("https://excalidraw.com/Cascadia.woff2");
      }
    </style>
  </defs>
  <g stroke-linecap="round" transform="translate(27.644308318129788 158.38570384090355) rotate(0 442.34219651892 326.68499209599815)"><path d="M32 0 M32 0 C293.78 1.97, 555.78 1.71, 852.68 0 M32 0 C300.45 0.47, 569.25 -0.16, 852.68 0 M852.68 0 C872.73 -0.08, 883.11 12.6, 884.68 32 M852.68 0 C873.17 1.41, 885.99 10.99, 884.68 32 M884.68 32 C885.79 170.62, 886.3 310.09, 884.68 621.37 M884.68 32 C884.42 197.32, 884.47 362.49, 884.68 621.37 M884.68 621.37 C885.86 642.26, 874.51 652.71, 852.68 653.37 M884.68 621.37 C885.32 643.45, 874.04 651.88, 852.68 653.37 M852.68 653.37 C587.86 650.55, 324.39 651.63, 32 653.37 M852.68 653.37 C646.93 654.01, 440.35 653.85, 32 653.37 M32 653.37 C11.67 651.51, -0.54 640.73, 0 621.37 M32 653.37 C9.93 651.58, -0.56 642.61, 0 621.37 M0 621.37 C1.36 395.28, 1.78 168.41, 0 32 M0 621.37 C0.67 414.42, 0.31 207.48, 0 32 M0 32 C-0.52 9.42, 10.81 1.5, 32 0 M0 32 C-0.96 12.26, 11.63 1, 32 0" stroke="#000000" stroke-width="1" fill="none"></path></g><g transform="translate(398.67889573747516 101.28134900433355) rotate(0 80.03992462158203 12.5)"><text x="0" y="0" font-family="Virgil, Segoe UI Emoji" font-size="20px" fill="#000000" text-anchor="start" style="white-space: pre;" direction="ltr" dominant-baseline="text-before-edge">pallet-contracts</text></g><g stroke-linecap="round" transform="translate(10 62.38028884280169) rotate(0 462.5506052311898 388.12967354916253)"><path d="M32 0 M32 0 C269.54 -0.81, 506.89 -0.06, 893.1 0 M32 0 C211.89 -0.59, 392.36 -0.45, 893.1 0 M893.1 0 C915.34 0.69, 924.87 8.83, 925.1 32 M893.1 0 C913.58 1.71, 923.18 9.74, 925.1 32 M925.1 32 C922.61 301.37, 922.28 570.66, 925.1 744.26 M925.1 32 C926.38 286.77, 926.72 542.06, 925.1 744.26 M925.1 744.26 C925.52 765.85, 913.2 777.31, 893.1 776.26 M925.1 744.26 C926.11 763.46, 914.53 775.27, 893.1 776.26 M893.1 776.26 C658.72 777.24, 424.51 776.13, 32 776.26 M893.1 776.26 C622.15 776.11, 351.68 775.71, 32 776.26 M32 776.26 C9.95 775.78, -1.34 766.15, 0 744.26 M32 776.26 C12.84 777.61, -2.24 766.39, 0 744.26 M0 744.26 C-1.42 599.45, -1.2 453.21, 0 32 M0 744.26 C-2.5 485.24, -2.39 225.88, 0 32 M0 32 C1.95 9.27, 8.71 0.55, 32 0 M0 32 C-2.11 11.96, 11.26 -0.08, 32 0" stroke="#000000" stroke-width="1" fill="none"></path></g><g transform="translate(421.9216682643332 10) rotate(0 36.76996612548828 12.5)"><text x="0" y="0" font-family="Virgil, Segoe UI Emoji" font-size="20px" fill="#000000" text-anchor="start" style="white-space: pre;" direction="ltr" dominant-baseline="text-before-edge">Runtime</text></g><g mask="url(#mask-w3KW1VitWQVgvL5xEF6rn)" stroke-linecap="round"><g transform="translate(474.74552361577844 303.77265218948287) rotate(0 0.7277363380094357 55.99843369529802)"><path d="M-0.57 -1.12 C-0.06 17.93, 1.49 94.09, 2.02 113.11 M1.34 0.91 C1.73 19.69, 0.77 92.9, 0.86 111.23" stroke="#000000" stroke-width="1" fill="none"></path></g><g transform="translate(474.74552361577844 303.77265218948287) rotate(0 0.7277363380094357 55.99843369529802)"><path d="M-11.12 82.32 C-6.58 89.49, -4.56 94.72, -0.5 111.19 M-9.95 83.09 C-6.79 88.79, -4.26 96.52, 1.28 111.92" stroke="#000000" stroke-width="1" fill="none"></path></g><g transform="translate(474.74552361577844 303.77265218948287) rotate(0 0.7277363380094357 55.99843369529802)"><path d="M9.4 82.42 C9.47 89.47, 7.02 94.68, -0.5 111.19 M10.57 83.18 C8.85 88.85, 6.5 96.55, 1.28 111.92" stroke="#000000" stroke-width="1" fill="none"></path></g></g><mask id="mask-w3KW1VitWQVgvL5xEF6rn"><rect x="0" y="0" fill="#fff" width="577.1648683296253" height="516.4366575739512"></rect><rect x="397.40323979594405" y="350.10465488171695" fill="#000" width="157.10391235351562" height="20" opacity="1"></rect></mask><g transform="translate(397.40323979594405 350.1046548817169) rotate(0 78.07002015784383 9.666431003063934)"><text x="78.55195617675781" y="0" font-family="Virgil, Segoe UI Emoji" font-size="16px" fill="#000000" text-anchor="middle" style="white-space: pre;" direction="ltr" dominant-baseline="text-before-edge">Create wasmi engine</text></g><g stroke-linecap="round" transform="translate(75.83586708615485 433.9366575739511) rotate(0 407.5 46.5)"><path d="M23.25 0 M23.25 0 C250.07 2.57, 478.02 2.42, 791.75 0 M23.25 0 C197.04 -0.53, 371.04 -0.92, 791.75 0 M791.75 0 C806.96 -1.43, 815.42 6, 815 23.25 M791.75 0 C807.76 -2.07, 813.38 7.72, 815 23.25 M815 23.25 C815.9 36.4, 812.98 47.1, 815 69.75 M815 23.25 C815.05 37.14, 815 50.9, 815 69.75 M815 69.75 C814.41 84.68, 806.25 92.26, 791.75 93 M815 69.75 C816.5 84.26, 805.29 94.07, 791.75 93 M791.75 93 C565.83 90.85, 338.76 91.07, 23.25 93 M791.75 93 C490.18 95.25, 188.88 95.09, 23.25 93 M23.25 93 C9.06 93.72, -0.27 86.29, 0 69.75 M23.25 93 C7.19 92.77, -1.04 85.02, 0 69.75 M0 69.75 C-0.22 57.07, 2.4 44.46, 0 23.25 M0 69.75 C-0.74 57.74, -1.07 45.8, 0 23.25 M0 23.25 C0.32 8.43, 8.2 0.88, 23.25 0 M0 23.25 C-1.25 7.04, 5.46 0.64, 23.25 0" stroke="#000000" stroke-width="1" fill="none"></path></g><g transform="translate(360.8059751183814 467.9366575739511) rotate(0 122.52989196777344 12.5)"><text x="122.52989196777344" y="0" font-family="Virgil, Segoe UI Emoji" font-size="20px" fill="#000000" text-anchor="middle" style="white-space: pre;" direction="ltr" dominant-baseline="text-before-edge">Wasm interpreter (wasmi)</text></g><g stroke-linecap="round" transform="translate(285.52072035412675 218.72776187798246) rotate(0 190.5 35)"><path d="M17.5 0 M17.5 0 C99.15 -0.17, 178.2 -0.57, 363.5 0 M17.5 0 C142.81 1.04, 267.95 0.32, 363.5 0 M363.5 0 C375.36 -1.93, 380.37 6.47, 381 17.5 M363.5 0 C375.44 -0.93, 382.97 6.04, 381 17.5 M381 17.5 C381.04 31.37, 382.64 40.98, 381 52.5 M381 17.5 C381.73 28.79, 380.27 38.28, 381 52.5 M381 52.5 C379.77 65.48, 375.57 69.78, 363.5 70 M381 52.5 C382.12 63.83, 376.26 69.44, 363.5 70 M363.5 70 C245.1 69.76, 124.13 70.03, 17.5 70 M363.5 70 C234.51 71.92, 106.34 72.47, 17.5 70 M17.5 70 C7.65 70.47, -0.91 63.5, 0 52.5 M17.5 70 C6.84 69.92, 2.15 61.96, 0 52.5 M0 52.5 C0.22 46.15, -0.95 37.91, 0 17.5 M0 52.5 C-0.23 39.03, -0.74 25.65, 0 17.5 M0 17.5 C0.88 5.32, 7.06 1.99, 17.5 0 M0 17.5 C-1.24 6.39, 5.22 1.76, 17.5 0" stroke="#000000" stroke-width="1" fill="none"></path></g><g transform="translate(290.52072035412675 234.52776187798247) rotate(0 131.25 19.19999999999999)"><text x="0" y="0" font-family="Cascadia, Segoe UI Emoji" font-size="16px" fill="#000000" text-anchor="start" style="white-space: pre;" direction="ltr" dominant-baseline="text-before-edge">call(account_id: AccountId)</text><text x="0" y="19.2" font-family="Cascadia, Segoe UI Emoji" font-size="16px" fill="#000000" text-anchor="start" style="white-space: pre;" direction="ltr" dominant-baseline="text-before-edge">instantiate(code_hash: Hash)</text></g><g mask="url(#mask-JvTCE9zCCj94DXUNQwWap)" stroke-linecap="round"><g transform="translate(471.6634691801478 538.9206125665294) rotate(0 -0.08789465240374739 47.159689922294376)"><path d="M0.65 0.32 C0.5 15.93, 0 77.89, 0.01 93.76 M-0.46 -0.55 C-0.82 15.18, -0.91 79.17, -0.75 94.87" stroke="#000000" stroke-width="1" fill="none"></path></g><g transform="translate(471.6634691801478 538.9206125665294) rotate(0 -0.08789465240374739 47.159689922294376)"><path d="M-10.56 67.31 C-8.51 79.04, -1.7 87.62, -1.23 95.58 M-10.23 66.1 C-8.76 73.65, -5.66 79.25, -0.44 95.25" stroke="#000000" stroke-width="1" fill="none"></path></g><g transform="translate(471.6634691801478 538.9206125665294) rotate(0 -0.08789465240374739 47.159689922294376)"><path d="M9.96 67.25 C4.27 79.11, 3.34 87.72, -1.23 95.58 M10.29 66.04 C7.25 73.61, 5.82 79.23, -0.44 95.25" stroke="#000000" stroke-width="1" fill="none"></path></g></g><mask id="mask-JvTCE9zCCj94DXUNQwWap"><rect x="0" y="0" fill="#fff" width="572.0142770159305" height="733.4731357568877"></rect><rect x="412.1841025547369" y="576.1968741617085" fill="#000" width="118.60792541503906" height="20" opacity="1"></rect></mask><g transform="translate(412.1841025547369 576.1968741617086) rotate(0 59.39147197300713 9.883428327115269)"><text x="59.30396270751953" y="0" font-family="Virgil, Segoe UI Emoji" font-size="16px" fill="#000000" text-anchor="middle" style="white-space: pre;" direction="ltr" dominant-baseline="text-before-edge">access host fn</text></g><g mask="url(#mask-f44OxhisUXMUTGOBpS1gV)" stroke-linecap="round"><g transform="translate(904.8076220465291 485.912008349818) rotate(0 123.46525499146833 -0.06359824655663715)"><path d="M-0.75 -1.18 C40.51 -1.1, 206.48 -0.44, 247.68 -0.42 M1.06 0.82 C42.24 1.14, 206.51 1.09, 247.26 0.9" stroke="#000000" stroke-width="1" fill="none"></path></g><g transform="translate(904.8076220465291 485.912008349818) rotate(0 123.46525499146833 -0.06359824655663715)"><path d="M217.13 12.9 C227.21 7.82, 234.87 3.08, 245.81 -0.11 M218.98 10.87 C228.22 8.55, 236.94 3.86, 247.07 1.57" stroke="#000000" stroke-width="1" fill="none"></path></g><g transform="translate(904.8076220465291 485.912008349818) rotate(0 123.46525499146833 -0.06359824655663715)"><path d="M217.09 -7.62 C227.03 -6.33, 234.7 -4.7, 245.81 -0.11 M218.94 -9.65 C228.02 -5.53, 236.75 -3.79, 247.07 1.57" stroke="#000000" stroke-width="1" fill="none"></path></g></g><mask id="mask-f44OxhisUXMUTGOBpS1gV"><rect x="0" y="0" fill="#fff" width="1251.4770393532435" height="585.912008349818"></rect><rect x="975.5903516349454" y="475.91200834981805" fill="#000" width="105.10395812988281" height="20" opacity="1"></rect></mask><g transform="translate(975.5903516349449 475.91200834981805) rotate(0 52.68252540305252 9.936401753443363)"><text x="52.551979064941406" y="0" font-family="Virgil, Segoe UI Emoji" font-size="16px" fill="#000000" text-anchor="middle" style="white-space: pre;" direction="ltr" dominant-baseline="text-before-edge">load &amp; invoke</text></g><g transform="translate(1213.0746366205603 469.14917559999554) rotate(0 37.5 19.19999999999999)"><text x="0" y="0" font-family="Cascadia, Segoe UI Emoji" font-size="16px" fill="#000000" text-anchor="start" style="white-space: pre;" direction="ltr" dominant-baseline="text-before-edge">deploy()</text><text x="0" y="19.2" font-family="Cascadia, Segoe UI Emoji" font-size="16px" fill="#000000" text-anchor="start" style="white-space: pre;" direction="ltr" dominant-baseline="text-before-edge">call()</text></g><g transform="translate(1204.7622373875602 412.77566063191335) rotate(0 111.5499267578125 25)"><text x="0" y="0" font-family="Virgil, Segoe UI Emoji" font-size="20px" fill="#000000" text-anchor="start" style="white-space: pre;" direction="ltr" dominant-baseline="text-before-edge">Contract / Wasm code</text><text x="0" y="25" font-family="Virgil, Segoe UI Emoji" font-size="20px" fill="#000000" text-anchor="start" style="white-space: pre;" direction="ltr" dominant-baseline="text-before-edge"></text></g><g stroke-linecap="round" transform="translate(1176.306324785704 396.93159450731923) rotate(0 145.65062609848633 76.13877336895891)"><path d="M32 0 M32 0 C79.18 -1.87, 124.7 -0.57, 259.3 0 M32 0 C118.88 1.6, 206.04 1.06, 259.3 0 M259.3 0 C281.69 -1.41, 290.6 11.35, 291.3 32 M259.3 0 C280.61 2.21, 293.48 10.5, 291.3 32 M291.3 32 C292.45 67.89, 290.32 100.22, 291.3 120.28 M291.3 32 C291.52 64.43, 292.29 94.25, 291.3 120.28 M291.3 120.28 C292.74 141.71, 281.56 154.23, 259.3 152.28 M291.3 120.28 C289.31 140.17, 282.25 152.65, 259.3 152.28 M259.3 152.28 C188.43 152.45, 115.79 151.76, 32 152.28 M259.3 152.28 C178.61 151.01, 97.81 150.61, 32 152.28 M32 152.28 C8.8 154.17, -1.17 141.48, 0 120.28 M32 152.28 C10.69 151.32, 0.15 139.97, 0 120.28 M0 120.28 C1.95 95.41, 0.61 70.27, 0 32 M0 120.28 C0.72 91.95, -0.41 63.66, 0 32 M0 32 C-1.92 8.91, 9.53 -0.27, 32 0 M0 32 C1.26 8.82, 9.62 -1.61, 32 0" stroke="#000000" stroke-width="1" fill="none"></path></g><g transform="translate(412.96677613809334 177.81085500497284) rotate(0 67.9099349975586 12.5)"><text x="0" y="0" font-family="Virgil, Segoe UI Emoji" font-size="20px" fill="#000000" text-anchor="start" style="white-space: pre;" direction="ltr" dominant-baseline="text-before-edge">Dispatchables</text></g><g stroke-linecap="round" transform="translate(286.863096799329 658.5997511304308) rotate(0 190.5 43.39999999999998)"><path d="M21.7 0 M21.7 0 C103.93 -1.94, 187.64 -0.56, 359.3 0 M21.7 0 C99.89 0.51, 177.93 0.59, 359.3 0 M359.3 0 C372.05 1.95, 382.12 8.56, 381 21.7 M359.3 0 C371.95 -1, 382.92 5.83, 381 21.7 M381 21.7 C379.42 32.17, 381.18 41.57, 381 65.1 M381 21.7 C381.11 34.15, 381.9 46.28, 381 65.1 M381 65.1 C380.78 80.94, 371.86 85.59, 359.3 86.8 M381 65.1 C382.68 81.78, 373.26 86.32, 359.3 86.8 M359.3 86.8 C257.36 83.31, 155.12 84.13, 21.7 86.8 M359.3 86.8 C274.42 84.43, 190.44 84.04, 21.7 86.8 M21.7 86.8 C5.79 86.66, -1.2 79.15, 0 65.1 M21.7 86.8 C9.44 84.82, 0.47 78.96, 0 65.1 M0 65.1 C-2.07 55.35, -1.57 43.2, 0 21.7 M0 65.1 C0.46 52.27, -0.51 37.39, 0 21.7 M0 21.7 C-1.59 6.02, 8.18 -1.78, 21.7 0 M0 21.7 C-1.97 6.04, 5.36 0.76, 21.7 0" stroke="#000000" stroke-width="1" fill="none"></path></g><g transform="translate(291.863096799329 663.5997511304308) rotate(0 60.9375 38.39999999999998)"><text x="0" y="0" font-family="Cascadia, Segoe UI Emoji" font-size="16px" fill="#000000" text-anchor="start" style="white-space: pre;" direction="ltr" dominant-baseline="text-before-edge">get_storage</text><text x="0" y="19.2" font-family="Cascadia, Segoe UI Emoji" font-size="16px" fill="#000000" text-anchor="start" style="white-space: pre;" direction="ltr" dominant-baseline="text-before-edge">set_storage</text><text x="0" y="38.4" font-family="Cascadia, Segoe UI Emoji" font-size="16px" fill="#000000" text-anchor="start" style="white-space: pre;" direction="ltr" dominant-baseline="text-before-edge">call</text><text x="0" y="57.599999999999994" font-family="Cascadia, Segoe UI Emoji" font-size="16px" fill="#000000" text-anchor="start" style="white-space: pre;" direction="ltr" dominant-baseline="text-before-edge">delegage_call</text></g></svg>